solid OpenSCAD_Model
  facet normal -1 0 0
    outer loop
      vertex 16.2 -4.9 6.4
      vertex 16.2 -4.2 5.4
      vertex 16.2 -4.9 5.4
    endloop
  endfacet
  facet normal -1 0 0
    outer loop
      vertex 16.2 -4.2 5.4
      vertex 16.2 -4.9 6.4
      vertex 16.2 -4.2 24.8
    endloop
  endfacet
  facet normal -1 0 0
    outer loop
      vertex 16.2 -7.2 24.8
      vertex 16.2 -4.9 6.4
      vertex 16.2 -7.2 6.4
    endloop
  endfacet
  facet normal -1 0 0
    outer loop
      vertex 16.2 -4.9 6.4
      vertex 16.2 -7.2 24.8
      vertex 16.2 -4.2 24.8
    endloop
  endfacet
  facet normal -0 0 1
    outer loop
      vertex 109.5 -2.9 2.4
      vertex 112.4 -3 2.4
      vertex 112.342 -2.41473 2.4
    endloop
  endfacet
  facet normal 0 0 1
    outer loop
      vertex 112.4 -3 2.4
      vertex 109.5 -2.9 2.4
      vertex 112.4 -90 2.4
    endloop
  endfacet
  facet normal 0 0 1
    outer loop
      vertex 109.5 -2.9 2.4
      vertex 112.342 -2.41473 2.4
      vertex 112.172 -1.85195 2.4
    endloop
  endfacet
  facet normal 0 0 1
    outer loop
      vertex 109.5 -90.1 2.4
      vertex 112.4 -90 2.4
      vertex 109.5 -2.9 2.4
    endloop
  endfacet
  facet normal 0 0 1
    outer loop
      vertex 109.5 -2.9 2.4
      vertex 112.172 -1.85195 2.4
      vertex 111.894 -1.33329 2.4
    endloop
  endfacet
  facet normal 0 0 1
    outer loop
      vertex 112.4 -90 2.4
      vertex 109.5 -90.1 2.4
      vertex 112.342 -90.5853 2.4
    endloop
  endfacet
  facet normal 0 0 1
    outer loop
      vertex 109.5 -2.9 2.4
      vertex 111.894 -1.33329 2.4
      vertex 111.521 -0.878679 2.4
    endloop
  endfacet
  facet normal 0 0 1
    outer loop
      vertex 112.342 -90.5853 2.4
      vertex 109.5 -90.1 2.4
      vertex 112.172 -91.148 2.4
    endloop
  endfacet
  facet normal 0 0 1
    outer loop
      vertex 109.5 -2.9 2.4
      vertex 111.521 -0.878679 2.4
      vertex 111.067 -0.50559 2.4
    endloop
  endfacet
  facet normal 0 0 1
    outer loop
      vertex 112.172 -91.148 2.4
      vertex 109.5 -90.1 2.4
      vertex 111.894 -91.6667 2.4
    endloop
  endfacet
  facet normal 0 0 1
    outer loop
      vertex 109.5 -2.9 2.4
      vertex 111.067 -0.50559 2.4
      vertex 110.548 -0.228361 2.4
    endloop
  endfacet
  facet normal 0 0 1
    outer loop
      vertex 111.894 -91.6667 2.4
      vertex 109.5 -90.1 2.4
      vertex 111.521 -92.1213 2.4
    endloop
  endfacet
  facet normal 0 0 1
    outer loop
      vertex 109.5 -2.9 2.4
      vertex 110.548 -0.228361 2.4
      vertex 109.985 -0.0576439 2.4
    endloop
  endfacet
  facet normal 0 0 1
    outer loop
      vertex 111.521 -92.1213 2.4
      vertex 109.5 -90.1 2.4
      vertex 111.067 -92.4944 2.4
    endloop
  endfacet
  facet normal 0 0 1
    outer loop
      vertex 111.067 -92.4944 2.4
      vertex 109.5 -90.1 2.4
      vertex 110.548 -92.7716 2.4
    endloop
  endfacet
  facet normal 0 0 1
    outer loop
      vertex 109.4 0 2.4
      vertex 109.5 -2.9 2.4
      vertex 109.985 -0.0576439 2.4
    endloop
  endfacet
  facet normal -0 0 1
    outer loop
      vertex 3 0 2.4
      vertex 109.5 -2.9 2.4
      vertex 109.4 0 2.4
    endloop
  endfacet
  facet normal 0 0 1
    outer loop
      vertex 3 0 2.4
      vertex 2.9 -2.9 2.4
      vertex 109.5 -2.9 2.4
    endloop
  endfacet
  facet normal -0 0 1
    outer loop
      vertex 1.85195 -0.228361 2.4
      vertex 2.9 -2.9 2.4
      vertex 2.41473 -0.0576439 2.4
    endloop
  endfacet
  facet normal -0 0 1
    outer loop
      vertex 2.41473 -0.0576439 2.4
      vertex 2.9 -2.9 2.4
      vertex 3 0 2.4
    endloop
  endfacet
  facet normal 0 0 1
    outer loop
      vertex 110.548 -92.7716 2.4
      vertex 109.5 -90.1 2.4
      vertex 109.985 -92.9424 2.4
    endloop
  endfacet
  facet normal 0 0 1
    outer loop
      vertex 109.5 -90.1 2.4
      vertex 109.4 -93 2.4
      vertex 109.985 -92.9424 2.4
    endloop
  endfacet
  facet normal 0 0 1
    outer loop
      vertex 109.5 -90.1 2.4
      vertex 3 -93 2.4
      vertex 109.4 -93 2.4
    endloop
  endfacet
  facet normal -0 0 1
    outer loop
      vertex 2.9 -90.1 2.4
      vertex 3 -93 2.4
      vertex 109.5 -90.1 2.4
    endloop
  endfacet
  facet normal 0 0 1
    outer loop
      vertex 2.9 -90.1 2.4
      vertex 2.41473 -92.9424 2.4
      vertex 3 -93 2.4
    endloop
  endfacet
  facet normal 0 0 1
    outer loop
      vertex 2.9 -2.9 2.4
      vertex 0 -3 2.4
      vertex 2.9 -90.1 2.4
    endloop
  endfacet
  facet normal -0 0 1
    outer loop
      vertex 1.33329 -0.50559 2.4
      vertex 2.9 -2.9 2.4
      vertex 1.85195 -0.228361 2.4
    endloop
  endfacet
  facet normal -0 0 1
    outer loop
      vertex 0 -90 2.4
      vertex 2.9 -90.1 2.4
      vertex 0 -3 2.4
    endloop
  endfacet
  facet normal -0 0 1
    outer loop
      vertex 0.878679 -0.878679 2.4
      vertex 2.9 -2.9 2.4
      vertex 1.33329 -0.50559 2.4
    endloop
  endfacet
  facet normal 0 -0 1
    outer loop
      vertex 0.0576439 -90.5853 2.4
      vertex 2.9 -90.1 2.4
      vertex 0 -90 2.4
    endloop
  endfacet
  facet normal -0 0 1
    outer loop
      vertex 0.50559 -1.33329 2.4
      vertex 2.9 -2.9 2.4
      vertex 0.878679 -0.878679 2.4
    endloop
  endfacet
  facet normal 0 0 1
    outer loop
      vertex 2.9 -90.1 2.4
      vertex 1.85195 -92.7716 2.4
      vertex 2.41473 -92.9424 2.4
    endloop
  endfacet
  facet normal -0 0 1
    outer loop
      vertex 0.228361 -1.85195 2.4
      vertex 2.9 -2.9 2.4
      vertex 0.50559 -1.33329 2.4
    endloop
  endfacet
  facet normal 0 0 1
    outer loop
      vertex 2.9 -90.1 2.4
      vertex 1.33329 -92.4944 2.4
      vertex 1.85195 -92.7716 2.4
    endloop
  endfacet
  facet normal -0 0 1
    outer loop
      vertex 0.0576439 -2.41473 2.4
      vertex 2.9 -2.9 2.4
      vertex 0.228361 -1.85195 2.4
    endloop
  endfacet
  facet normal 0 0 1
    outer loop
      vertex 2.9 -90.1 2.4
      vertex 0.878679 -92.1213 2.4
      vertex 1.33329 -92.4944 2.4
    endloop
  endfacet
  facet normal 0 0 1
    outer loop
      vertex 2.9 -2.9 2.4
      vertex 0.0576439 -2.41473 2.4
      vertex 0 -3 2.4
    endloop
  endfacet
  facet normal 0 0 1
    outer loop
      vertex 2.9 -90.1 2.4
      vertex 0.50559 -91.6667 2.4
      vertex 0.878679 -92.1213 2.4
    endloop
  endfacet
  facet normal 0 0 1
    outer loop
      vertex 2.9 -90.1 2.4
      vertex 0.228361 -91.148 2.4
      vertex 0.50559 -91.6667 2.4
    endloop
  endfacet
  facet normal 0 0 1
    outer loop
      vertex 2.9 -90.1 2.4
      vertex 0.0576439 -90.5853 2.4
      vertex 0.228361 -91.148 2.4
    endloop
  endfacet
  facet normal 1 0 0
    outer loop
      vertex 96.2 -4.2 24.8
      vertex 96.2 -4.9 6.4
      vertex 96.2 -4.2 5.4
    endloop
  endfacet
  facet normal 1 -0 0
    outer loop
      vertex 96.2 -7.2 24.8
      vertex 96.2 -4.9 6.4
      vertex 96.2 -4.2 24.8
    endloop
  endfacet
  facet normal 1 0 0
    outer loop
      vertex 96.2 -4.9 6.4
      vertex 96.2 -7.2 24.8
      vertex 96.2 -7.2 6.4
    endloop
  endfacet
  facet normal 1 0 0
    outer loop
      vertex 96.2 -4.2 5.4
      vertex 96.2 -4.9 6.4
      vertex 96.2 -4.9 5.4
    endloop
  endfacet
  facet normal 0 -1 0
    outer loop
      vertex 16.2 -7.2 6.4
      vertex 96.2 -7.2 24.8
      vertex 16.2 -7.2 24.8
    endloop
  endfacet
  facet normal 0 -1 -0
    outer loop
      vertex 96.2 -7.2 24.8
      vertex 16.2 -7.2 6.4
      vertex 96.2 -7.2 6.4
    endloop
  endfacet
  facet normal -0 0 1
    outer loop
      vertex 16.2 -4.2 24.8
      vertex 96.2 -7.2 24.8
      vertex 96.2 -4.2 24.8
    endloop
  endfacet
  facet normal 0 0 1
    outer loop
      vertex 96.2 -7.2 24.8
      vertex 16.2 -4.2 24.8
      vertex 16.2 -7.2 24.8
    endloop
  endfacet
  facet normal 0 1 -0
    outer loop
      vertex 96.2 -4.2 5.4
      vertex 16.2 -4.2 24.8
      vertex 96.2 -4.2 24.8
    endloop
  endfacet
  facet normal 0 1 0
    outer loop
      vertex 16.2 -4.2 24.8
      vertex 96.2 -4.2 5.4
      vertex 16.2 -4.2 5.4
    endloop
  endfacet
  facet normal -1 0 0
    outer loop
      vertex 16.2 -62.2 6.4
      vertex 16.2 -59.2 24.8
      vertex 16.2 -59.2 6.4
    endloop
  endfacet
  facet normal -1 -0 0
    outer loop
      vertex 16.2 -59.2 24.8
      vertex 16.2 -62.2 6.4
      vertex 16.2 -62.2 24.8
    endloop
  endfacet
  facet normal 1 -0 0
    outer loop
      vertex 96.2 -62.2 24.8
      vertex 96.2 -59.2 6.4
      vertex 96.2 -59.2 24.8
    endloop
  endfacet
  facet normal 1 0 0
    outer loop
      vertex 96.2 -59.2 6.4
      vertex 96.2 -62.2 24.8
      vertex 96.2 -62.2 6.4
    endloop
  endfacet
  facet normal -0 0 1
    outer loop
      vertex 16.2 -59.2 24.8
      vertex 96.2 -62.2 24.8
      vertex 96.2 -59.2 24.8
    endloop
  endfacet
  facet normal 0 0 1
    outer loop
      vertex 96.2 -62.2 24.8
      vertex 16.2 -59.2 24.8
      vertex 16.2 -62.2 24.8
    endloop
  endfacet
  facet normal 0 1 -0
    outer loop
      vertex 96.2 -59.2 6.4
      vertex 16.2 -59.2 24.8
      vertex 96.2 -59.2 24.8
    endloop
  endfacet
  facet normal 0 1 0
    outer loop
      vertex 16.2 -59.2 24.8
      vertex 96.2 -59.2 6.4
      vertex 16.2 -59.2 6.4
    endloop
  endfacet
  facet normal 0 -1 0
    outer loop
      vertex 16.2 -62.2 6.4
      vertex 96.2 -62.2 24.8
      vertex 16.2 -62.2 24.8
    endloop
  endfacet
  facet normal 0 -1 -0
    outer loop
      vertex 96.2 -62.2 24.8
      vertex 16.2 -62.2 6.4
      vertex 96.2 -62.2 6.4
    endloop
  endfacet
  facet normal -0.995185 0.0980169 0
    outer loop
      vertex 0 -3 3.8147e-07
      vertex 0.0576439 -2.41473 2.4
      vertex 0.0576439 -2.41473 3.8147e-07
    endloop
  endfacet
  facet normal -0.995185 0.0980169 0
    outer loop
      vertex 0.0576439 -2.41473 2.4
      vertex 0 -3 3.8147e-07
      vertex 0 -3 2.4
    endloop
  endfacet
  facet normal -0.0979429 -0.995192 0
    outer loop
      vertex 2.41473 -92.9424 3.8147e-07
      vertex 3 -93 2.4
      vertex 2.41473 -92.9424 2.4
    endloop
  endfacet
  facet normal -0.0979429 -0.995192 -0
    outer loop
      vertex 3 -93 2.4
      vertex 2.41473 -92.9424 3.8147e-07
      vertex 3 -93 3.8147e-07
    endloop
  endfacet
  facet normal 0 0 -1
    outer loop
      vertex 105.425 -86.4008 3.8147e-07
      vertex 6.97533 -86.4008 3.8147e-07
      vertex 105.425 -6.59923 3.8147e-07
    endloop
  endfacet
  facet normal 0 0 -1
    outer loop
      vertex 105.425 -6.59923 3.8147e-07
      vertex 7.2168 -6.12533 3.8147e-07
      vertex 7.3 -5.6 3.8147e-07
    endloop
  endfacet
  facet normal 0 0 -1
    outer loop
      vertex 6.97533 -6.59923 3.8147e-07
      vertex 105.425 -6.59923 3.8147e-07
      vertex 6.97533 -86.4008 3.8147e-07
    endloop
  endfacet
  facet normal 0 0 -1
    outer loop
      vertex 105.425 -6.59923 3.8147e-07
      vertex 6.97533 -6.59923 3.8147e-07
      vertex 7.2168 -6.12533 3.8147e-07
    endloop
  endfacet
  facet normal 0 0 -1
    outer loop
      vertex 6.59923 -86.0247 3.8147e-07
      vertex 6.97533 -6.59923 3.8147e-07
      vertex 6.97533 -86.4008 3.8147e-07
    endloop
  endfacet
  facet normal 0 0 -1
    outer loop
      vertex 6.59923 -86.0247 3.8147e-07
      vertex 6.59923 -6.97533 3.8147e-07
      vertex 6.97533 -6.59923 3.8147e-07
    endloop
  endfacet
  facet normal 0 0 -1
    outer loop
      vertex 6.12533 -85.7832 3.8147e-07
      vertex 6.59923 -6.97533 3.8147e-07
      vertex 6.59923 -86.0247 3.8147e-07
    endloop
  endfacet
  facet normal 0 0 -1
    outer loop
      vertex 6.12533 -85.7832 3.8147e-07
      vertex 6.12533 -7.2168 3.8147e-07
      vertex 6.59923 -6.97533 3.8147e-07
    endloop
  endfacet
  facet normal 0 0 -1
    outer loop
      vertex 5.6 -85.7 3.8147e-07
      vertex 6.12533 -7.2168 3.8147e-07
      vertex 6.12533 -85.7832 3.8147e-07
    endloop
  endfacet
  facet normal 0 0 -1
    outer loop
      vertex 5.6 -85.7 3.8147e-07
      vertex 5.6 -7.3 3.8147e-07
      vertex 6.12533 -7.2168 3.8147e-07
    endloop
  endfacet
  facet normal 0 0 -1
    outer loop
      vertex 5.07467 -85.7832 3.8147e-07
      vertex 5.6 -7.3 3.8147e-07
      vertex 5.6 -85.7 3.8147e-07
    endloop
  endfacet
  facet normal 0 0 -1
    outer loop
      vertex 5.07467 -85.7832 3.8147e-07
      vertex 5.07467 -7.2168 3.8147e-07
      vertex 5.6 -7.3 3.8147e-07
    endloop
  endfacet
  facet normal 0 0 -1
    outer loop
      vertex 4.60076 -86.0247 3.8147e-07
      vertex 5.07467 -7.2168 3.8147e-07
      vertex 5.07467 -85.7832 3.8147e-07
    endloop
  endfacet
  facet normal 0 0 -1
    outer loop
      vertex 4.60076 -86.0247 3.8147e-07
      vertex 4.60076 -6.97533 3.8147e-07
      vertex 5.07467 -7.2168 3.8147e-07
    endloop
  endfacet
  facet normal 0 0 -1
    outer loop
      vertex 0 -90 3.8147e-07
      vertex 4.60076 -86.0247 3.8147e-07
      vertex 4.22467 -86.4008 3.8147e-07
    endloop
  endfacet
  facet normal -0 0 -1
    outer loop
      vertex 4.60076 -86.0247 3.8147e-07
      vertex 0 -90 3.8147e-07
      vertex 4.60076 -6.97533 3.8147e-07
    endloop
  endfacet
  facet normal 0 0 -1
    outer loop
      vertex 0 -90 3.8147e-07
      vertex 4.22467 -86.4008 3.8147e-07
      vertex 3.9832 -86.8747 3.8147e-07
    endloop
  endfacet
  facet normal 0 0 -1
    outer loop
      vertex 0 -3 3.8147e-07
      vertex 4.60076 -6.97533 3.8147e-07
      vertex 0 -90 3.8147e-07
    endloop
  endfacet
  facet normal 0 0 -1
    outer loop
      vertex 0 -90 3.8147e-07
      vertex 3.9832 -86.8747 3.8147e-07
      vertex 3.9 -87.4 3.8147e-07
    endloop
  endfacet
  facet normal 0 0 -1
    outer loop
      vertex 4.60076 -6.97533 3.8147e-07
      vertex 0 -3 3.8147e-07
      vertex 4.22467 -6.59923 3.8147e-07
    endloop
  endfacet
  facet normal 0 0 -1
    outer loop
      vertex 107.799 -86.0247 3.8147e-07
      vertex 112.4 -90 3.8147e-07
      vertex 108.175 -86.4008 3.8147e-07
    endloop
  endfacet
  facet normal 0 0 -1
    outer loop
      vertex 112.4 -3 3.8147e-07
      vertex 108.417 -6.12533 3.8147e-07
      vertex 108.5 -5.6 3.8147e-07
    endloop
  endfacet
  facet normal 0 0 -1
    outer loop
      vertex 112.4 -90 3.8147e-07
      vertex 107.799 -86.0247 3.8147e-07
      vertex 112.4 -3 3.8147e-07
    endloop
  endfacet
  facet normal 0 0 -1
    outer loop
      vertex 112.4 -3 3.8147e-07
      vertex 108.175 -6.59923 3.8147e-07
      vertex 108.417 -6.12533 3.8147e-07
    endloop
  endfacet
  facet normal 0 0 -1
    outer loop
      vertex 107.799 -6.97533 3.8147e-07
      vertex 112.4 -3 3.8147e-07
      vertex 107.799 -86.0247 3.8147e-07
    endloop
  endfacet
  facet normal 0 0 -1
    outer loop
      vertex 112.4 -3 3.8147e-07
      vertex 107.799 -6.97533 3.8147e-07
      vertex 108.175 -6.59923 3.8147e-07
    endloop
  endfacet
  facet normal 0 0 -1
    outer loop
      vertex 107.325 -85.7832 3.8147e-07
      vertex 107.799 -6.97533 3.8147e-07
      vertex 107.799 -86.0247 3.8147e-07
    endloop
  endfacet
  facet normal 0 0 -1
    outer loop
      vertex 107.325 -85.7832 3.8147e-07
      vertex 107.325 -7.2168 3.8147e-07
      vertex 107.799 -6.97533 3.8147e-07
    endloop
  endfacet
  facet normal 0 0 -1
    outer loop
      vertex 106.8 -85.7 3.8147e-07
      vertex 107.325 -7.2168 3.8147e-07
      vertex 107.325 -85.7832 3.8147e-07
    endloop
  endfacet
  facet normal 0 0 -1
    outer loop
      vertex 106.8 -85.7 3.8147e-07
      vertex 106.8 -7.3 3.8147e-07
      vertex 107.325 -7.2168 3.8147e-07
    endloop
  endfacet
  facet normal 0 0 -1
    outer loop
      vertex 106.275 -85.7832 3.8147e-07
      vertex 106.8 -7.3 3.8147e-07
      vertex 106.8 -85.7 3.8147e-07
    endloop
  endfacet
  facet normal 0 0 -1
    outer loop
      vertex 106.275 -85.7832 3.8147e-07
      vertex 106.275 -7.2168 3.8147e-07
      vertex 106.8 -7.3 3.8147e-07
    endloop
  endfacet
  facet normal 0 0 -1
    outer loop
      vertex 105.801 -86.0247 3.8147e-07
      vertex 106.275 -7.2168 3.8147e-07
      vertex 106.275 -85.7832 3.8147e-07
    endloop
  endfacet
  facet normal 0 0 -1
    outer loop
      vertex 105.801 -86.0247 3.8147e-07
      vertex 105.801 -6.97533 3.8147e-07
      vertex 106.275 -7.2168 3.8147e-07
    endloop
  endfacet
  facet normal 0 0 -1
    outer loop
      vertex 105.425 -86.4008 3.8147e-07
      vertex 105.801 -6.97533 3.8147e-07
      vertex 105.801 -86.0247 3.8147e-07
    endloop
  endfacet
  facet normal 0 0 -1
    outer loop
      vertex 105.425 -86.4008 3.8147e-07
      vertex 105.425 -6.59923 3.8147e-07
      vertex 105.801 -6.97533 3.8147e-07
    endloop
  endfacet
  facet normal 0 0 -1
    outer loop
      vertex 7.2168 -86.8747 3.8147e-07
      vertex 105.183 -86.8747 3.8147e-07
      vertex 7.3 -87.4 3.8147e-07
    endloop
  endfacet
  facet normal 0 0 -1
    outer loop
      vertex 105.183 -86.8747 3.8147e-07
      vertex 7.2168 -86.8747 3.8147e-07
      vertex 105.425 -86.4008 3.8147e-07
    endloop
  endfacet
  facet normal 0 0 -1
    outer loop
      vertex 7.3 -87.4 3.8147e-07
      vertex 105.183 -86.8747 3.8147e-07
      vertex 105.1 -87.4 3.8147e-07
    endloop
  endfacet
  facet normal 0 0 -1
    outer loop
      vertex 6.97533 -86.4008 3.8147e-07
      vertex 105.425 -86.4008 3.8147e-07
      vertex 7.2168 -86.8747 3.8147e-07
    endloop
  endfacet
  facet normal 0 0 -1
    outer loop
      vertex 108.175 -88.3992 3.8147e-07
      vertex 112.4 -90 3.8147e-07
      vertex 112.342 -90.5853 3.8147e-07
    endloop
  endfacet
  facet normal 0 0 -1
    outer loop
      vertex 108.417 -86.8747 3.8147e-07
      vertex 112.4 -90 3.8147e-07
      vertex 108.5 -87.4 3.8147e-07
    endloop
  endfacet
  facet normal 0 0 -1
    outer loop
      vertex 108.175 -88.3992 3.8147e-07
      vertex 112.342 -90.5853 3.8147e-07
      vertex 112.172 -91.148 3.8147e-07
    endloop
  endfacet
  facet normal 0 0 -1
    outer loop
      vertex 108.175 -86.4008 3.8147e-07
      vertex 112.4 -90 3.8147e-07
      vertex 108.417 -86.8747 3.8147e-07
    endloop
  endfacet
  facet normal 0 0 -1
    outer loop
      vertex 108.175 -88.3992 3.8147e-07
      vertex 112.172 -91.148 3.8147e-07
      vertex 111.894 -91.6667 3.8147e-07
    endloop
  endfacet
  facet normal 0 0 -1
    outer loop
      vertex 108.417 -5.07467 3.8147e-07
      vertex 112.4 -3 3.8147e-07
      vertex 108.5 -5.6 3.8147e-07
    endloop
  endfacet
  facet normal 0 0 -1
    outer loop
      vertex 108.175 -88.3992 3.8147e-07
      vertex 111.894 -91.6667 3.8147e-07
      vertex 111.521 -92.1213 3.8147e-07
    endloop
  endfacet
  facet normal 0 0 -1
    outer loop
      vertex 108.175 -4.60076 3.8147e-07
      vertex 112.4 -3 3.8147e-07
      vertex 108.417 -5.07467 3.8147e-07
    endloop
  endfacet
  facet normal 0 0 -1
    outer loop
      vertex 107.799 -88.7753 3.8147e-07
      vertex 111.521 -92.1213 3.8147e-07
      vertex 111.067 -92.4944 3.8147e-07
    endloop
  endfacet
  facet normal -0 0 -1
    outer loop
      vertex 112.4 -3 3.8147e-07
      vertex 108.175 -4.60076 3.8147e-07
      vertex 112.342 -2.41473 3.8147e-07
    endloop
  endfacet
  facet normal 0 0 -1
    outer loop
      vertex 107.799 -88.7753 3.8147e-07
      vertex 111.067 -92.4944 3.8147e-07
      vertex 110.548 -92.7716 3.8147e-07
    endloop
  endfacet
  facet normal -0 0 -1
    outer loop
      vertex 112.342 -2.41473 3.8147e-07
      vertex 108.175 -4.60076 3.8147e-07
      vertex 112.172 -1.85195 3.8147e-07
    endloop
  endfacet
  facet normal 0 0 -1
    outer loop
      vertex 107.799 -88.7753 3.8147e-07
      vertex 110.548 -92.7716 3.8147e-07
      vertex 109.985 -92.9424 3.8147e-07
    endloop
  endfacet
  facet normal -0 0 -1
    outer loop
      vertex 112.172 -1.85195 3.8147e-07
      vertex 108.175 -4.60076 3.8147e-07
      vertex 111.894 -1.33329 3.8147e-07
    endloop
  endfacet
  facet normal 0 0 -1
    outer loop
      vertex 107.799 -88.7753 3.8147e-07
      vertex 109.985 -92.9424 3.8147e-07
      vertex 109.4 -93 3.8147e-07
    endloop
  endfacet
  facet normal -0 0 -1
    outer loop
      vertex 111.894 -1.33329 3.8147e-07
      vertex 108.175 -4.60076 3.8147e-07
      vertex 111.521 -0.878679 3.8147e-07
    endloop
  endfacet
  facet normal 0 0 -1
    outer loop
      vertex 107.799 -4.22467 3.8147e-07
      vertex 111.521 -0.878679 3.8147e-07
      vertex 108.175 -4.60076 3.8147e-07
    endloop
  endfacet
  facet normal 0 0 -1
    outer loop
      vertex 112.4 -90 3.8147e-07
      vertex 108.417 -87.9253 3.8147e-07
      vertex 108.5 -87.4 3.8147e-07
    endloop
  endfacet
  facet normal 0 0 -1
    outer loop
      vertex 112.4 -90 3.8147e-07
      vertex 108.175 -88.3992 3.8147e-07
      vertex 108.417 -87.9253 3.8147e-07
    endloop
  endfacet
  facet normal 0 0 -1
    outer loop
      vertex 111.521 -92.1213 3.8147e-07
      vertex 107.799 -88.7753 3.8147e-07
      vertex 108.175 -88.3992 3.8147e-07
    endloop
  endfacet
  facet normal 0 0 -1
    outer loop
      vertex 109.4 -93 3.8147e-07
      vertex 107.325 -89.0168 3.8147e-07
      vertex 107.799 -88.7753 3.8147e-07
    endloop
  endfacet
  facet normal 0 0 -1
    outer loop
      vertex 109.4 -93 3.8147e-07
      vertex 106.8 -89.1 3.8147e-07
      vertex 107.325 -89.0168 3.8147e-07
    endloop
  endfacet
  facet normal 0 0 -1
    outer loop
      vertex 109.4 -93 3.8147e-07
      vertex 106.275 -89.0168 3.8147e-07
      vertex 106.8 -89.1 3.8147e-07
    endloop
  endfacet
  facet normal 0 0 -1
    outer loop
      vertex 109.4 -93 3.8147e-07
      vertex 105.801 -88.7753 3.8147e-07
      vertex 106.275 -89.0168 3.8147e-07
    endloop
  endfacet
  facet normal 0 0 -1
    outer loop
      vertex 109.4 -93 3.8147e-07
      vertex 105.425 -88.3992 3.8147e-07
      vertex 105.801 -88.7753 3.8147e-07
    endloop
  endfacet
  facet normal 0 0 -1
    outer loop
      vertex 105.425 -6.59923 3.8147e-07
      vertex 7.3 -5.6 3.8147e-07
      vertex 105.183 -6.12533 3.8147e-07
    endloop
  endfacet
  facet normal 0 0 -1
    outer loop
      vertex 105.183 -87.9253 3.8147e-07
      vertex 7.3 -87.4 3.8147e-07
      vertex 105.1 -87.4 3.8147e-07
    endloop
  endfacet
  facet normal 0 0 -1
    outer loop
      vertex 7.2168 -87.9253 3.8147e-07
      vertex 105.183 -87.9253 3.8147e-07
      vertex 105.425 -88.3992 3.8147e-07
    endloop
  endfacet
  facet normal 0 0 -1
    outer loop
      vertex 6.97533 -88.3992 3.8147e-07
      vertex 105.425 -88.3992 3.8147e-07
      vertex 109.4 -93 3.8147e-07
    endloop
  endfacet
  facet normal 0 0 -1
    outer loop
      vertex 105.183 -87.9253 3.8147e-07
      vertex 7.2168 -87.9253 3.8147e-07
      vertex 7.3 -87.4 3.8147e-07
    endloop
  endfacet
  facet normal 0 0 -1
    outer loop
      vertex 105.425 -88.3992 3.8147e-07
      vertex 6.97533 -88.3992 3.8147e-07
      vertex 7.2168 -87.9253 3.8147e-07
    endloop
  endfacet
  facet normal 0 0 -1
    outer loop
      vertex 3 -93 3.8147e-07
      vertex 6.97533 -88.3992 3.8147e-07
      vertex 109.4 -93 3.8147e-07
    endloop
  endfacet
  facet normal 0 0 -1
    outer loop
      vertex 6.97533 -88.3992 3.8147e-07
      vertex 3 -93 3.8147e-07
      vertex 6.59923 -88.7753 3.8147e-07
    endloop
  endfacet
  facet normal 0 0 -1
    outer loop
      vertex 6.59923 -88.7753 3.8147e-07
      vertex 3 -93 3.8147e-07
      vertex 6.12533 -89.0168 3.8147e-07
    endloop
  endfacet
  facet normal 0 0 -1
    outer loop
      vertex 0.878679 -92.1213 3.8147e-07
      vertex 4.60076 -88.7753 3.8147e-07
      vertex 1.33329 -92.4944 3.8147e-07
    endloop
  endfacet
  facet normal 0 0 -1
    outer loop
      vertex 1.33329 -92.4944 3.8147e-07
      vertex 4.60076 -88.7753 3.8147e-07
      vertex 1.85195 -92.7716 3.8147e-07
    endloop
  endfacet
  facet normal 0 0 -1
    outer loop
      vertex 1.85195 -92.7716 3.8147e-07
      vertex 4.60076 -88.7753 3.8147e-07
      vertex 2.41473 -92.9424 3.8147e-07
    endloop
  endfacet
  facet normal 0 0 -1
    outer loop
      vertex 2.41473 -92.9424 3.8147e-07
      vertex 4.60076 -88.7753 3.8147e-07
      vertex 3 -93 3.8147e-07
    endloop
  endfacet
  facet normal -0 0 -1
    outer loop
      vertex 5.07467 -89.0168 3.8147e-07
      vertex 3 -93 3.8147e-07
      vertex 4.60076 -88.7753 3.8147e-07
    endloop
  endfacet
  facet normal -0 0 -1
    outer loop
      vertex 5.6 -89.1 3.8147e-07
      vertex 3 -93 3.8147e-07
      vertex 5.07467 -89.0168 3.8147e-07
    endloop
  endfacet
  facet normal 0 0 -1
    outer loop
      vertex 6.12533 -89.0168 3.8147e-07
      vertex 3 -93 3.8147e-07
      vertex 5.6 -89.1 3.8147e-07
    endloop
  endfacet
  facet normal -0 0 -1
    outer loop
      vertex 111.521 -0.878679 3.8147e-07
      vertex 107.799 -4.22467 3.8147e-07
      vertex 111.067 -0.50559 3.8147e-07
    endloop
  endfacet
  facet normal -0 0 -1
    outer loop
      vertex 111.067 -0.50559 3.8147e-07
      vertex 107.799 -4.22467 3.8147e-07
      vertex 110.548 -0.228361 3.8147e-07
    endloop
  endfacet
  facet normal -0 0 -1
    outer loop
      vertex 110.548 -0.228361 3.8147e-07
      vertex 107.799 -4.22467 3.8147e-07
      vertex 109.985 -0.0576439 3.8147e-07
    endloop
  endfacet
  facet normal -0 0 -1
    outer loop
      vertex 109.985 -0.0576439 3.8147e-07
      vertex 107.799 -4.22467 3.8147e-07
      vertex 109.4 0 3.8147e-07
    endloop
  endfacet
  facet normal 0 0 -1
    outer loop
      vertex 107.325 -3.9832 3.8147e-07
      vertex 109.4 0 3.8147e-07
      vertex 107.799 -4.22467 3.8147e-07
    endloop
  endfacet
  facet normal 0 0 -1
    outer loop
      vertex 106.8 -3.9 3.8147e-07
      vertex 109.4 0 3.8147e-07
      vertex 107.325 -3.9832 3.8147e-07
    endloop
  endfacet
  facet normal 0 0 -1
    outer loop
      vertex 106.275 -3.9832 3.8147e-07
      vertex 109.4 0 3.8147e-07
      vertex 106.8 -3.9 3.8147e-07
    endloop
  endfacet
  facet normal 0 0 -1
    outer loop
      vertex 105.801 -4.22467 3.8147e-07
      vertex 109.4 0 3.8147e-07
      vertex 106.275 -3.9832 3.8147e-07
    endloop
  endfacet
  facet normal 0 0 -1
    outer loop
      vertex 105.425 -4.60076 3.8147e-07
      vertex 109.4 0 3.8147e-07
      vertex 105.801 -4.22467 3.8147e-07
    endloop
  endfacet
  facet normal 0 0 -1
    outer loop
      vertex 105.183 -6.12533 3.8147e-07
      vertex 7.3 -5.6 3.8147e-07
      vertex 105.1 -5.6 3.8147e-07
    endloop
  endfacet
  facet normal 0 0 -1
    outer loop
      vertex 105.1 -5.6 3.8147e-07
      vertex 7.3 -5.6 3.8147e-07
      vertex 105.183 -5.07467 3.8147e-07
    endloop
  endfacet
  facet normal 0 0 -1
    outer loop
      vertex 7.2168 -5.07467 3.8147e-07
      vertex 105.183 -5.07467 3.8147e-07
      vertex 7.3 -5.6 3.8147e-07
    endloop
  endfacet
  facet normal 0 0 -1
    outer loop
      vertex 105.183 -5.07467 3.8147e-07
      vertex 7.2168 -5.07467 3.8147e-07
      vertex 105.425 -4.60076 3.8147e-07
    endloop
  endfacet
  facet normal 0 0 -1
    outer loop
      vertex 6.97533 -4.60076 3.8147e-07
      vertex 105.425 -4.60076 3.8147e-07
      vertex 7.2168 -5.07467 3.8147e-07
    endloop
  endfacet
  facet normal 0 0 -1
    outer loop
      vertex 105.425 -4.60076 3.8147e-07
      vertex 6.97533 -4.60076 3.8147e-07
      vertex 109.4 0 3.8147e-07
    endloop
  endfacet
  facet normal 0 0 -1
    outer loop
      vertex 3 0 3.8147e-07
      vertex 6.97533 -4.60076 3.8147e-07
      vertex 6.59923 -4.22467 3.8147e-07
    endloop
  endfacet
  facet normal 0 0 -1
    outer loop
      vertex 3 0 3.8147e-07
      vertex 6.59923 -4.22467 3.8147e-07
      vertex 6.12533 -3.9832 3.8147e-07
    endloop
  endfacet
  facet normal 0 0 -1
    outer loop
      vertex 3 0 3.8147e-07
      vertex 6.12533 -3.9832 3.8147e-07
      vertex 5.6 -3.9 3.8147e-07
    endloop
  endfacet
  facet normal 0 0 -1
    outer loop
      vertex 6.97533 -4.60076 3.8147e-07
      vertex 3 0 3.8147e-07
      vertex 109.4 0 3.8147e-07
    endloop
  endfacet
  facet normal 0 0 -1
    outer loop
      vertex 5.07467 -3.9832 3.8147e-07
      vertex 3 0 3.8147e-07
      vertex 5.6 -3.9 3.8147e-07
    endloop
  endfacet
  facet normal 0 0 -1
    outer loop
      vertex 4.60076 -4.22467 3.8147e-07
      vertex 3 0 3.8147e-07
      vertex 5.07467 -3.9832 3.8147e-07
    endloop
  endfacet
  facet normal 0 0 -1
    outer loop
      vertex 0.878679 -0.878679 3.8147e-07
      vertex 4.60076 -4.22467 3.8147e-07
      vertex 4.22467 -4.60076 3.8147e-07
    endloop
  endfacet
  facet normal 0 0 -1
    outer loop
      vertex 0 -3 3.8147e-07
      vertex 4.22467 -4.60076 3.8147e-07
      vertex 3.9832 -5.07467 3.8147e-07
    endloop
  endfacet
  facet normal 0 0 -1
    outer loop
      vertex 0 -3 3.8147e-07
      vertex 3.9832 -5.07467 3.8147e-07
      vertex 3.9 -5.6 3.8147e-07
    endloop
  endfacet
  facet normal 0 0 -1
    outer loop
      vertex 4.22467 -6.59923 3.8147e-07
      vertex 0 -3 3.8147e-07
      vertex 3.9832 -6.12533 3.8147e-07
    endloop
  endfacet
  facet normal -0 0 -1
    outer loop
      vertex 4.60076 -88.7753 3.8147e-07
      vertex 0.878679 -92.1213 3.8147e-07
      vertex 4.22467 -88.3992 3.8147e-07
    endloop
  endfacet
  facet normal 0 0 -1
    outer loop
      vertex 3.9832 -6.12533 3.8147e-07
      vertex 0 -3 3.8147e-07
      vertex 3.9 -5.6 3.8147e-07
    endloop
  endfacet
  facet normal 0 0 -1
    outer loop
      vertex 0.50559 -91.6667 3.8147e-07
      vertex 4.22467 -88.3992 3.8147e-07
      vertex 0.878679 -92.1213 3.8147e-07
    endloop
  endfacet
  facet normal 0 0 -1
    outer loop
      vertex 4.22467 -4.60076 3.8147e-07
      vertex 0 -3 3.8147e-07
      vertex 0.0576439 -2.41473 3.8147e-07
    endloop
  endfacet
  facet normal 0 0 -1
    outer loop
      vertex 0.228361 -91.148 3.8147e-07
      vertex 4.22467 -88.3992 3.8147e-07
      vertex 0.50559 -91.6667 3.8147e-07
    endloop
  endfacet
  facet normal 0 0 -1
    outer loop
      vertex 4.60076 -4.22467 3.8147e-07
      vertex 2.41473 -0.0576439 3.8147e-07
      vertex 3 0 3.8147e-07
    endloop
  endfacet
  facet normal 0 0 -1
    outer loop
      vertex 0.0576439 -90.5853 3.8147e-07
      vertex 4.22467 -88.3992 3.8147e-07
      vertex 0.228361 -91.148 3.8147e-07
    endloop
  endfacet
  facet normal 0 0 -1
    outer loop
      vertex 4.60076 -4.22467 3.8147e-07
      vertex 1.85195 -0.228361 3.8147e-07
      vertex 2.41473 -0.0576439 3.8147e-07
    endloop
  endfacet
  facet normal 0 0 -1
    outer loop
      vertex 0 -90 3.8147e-07
      vertex 4.22467 -88.3992 3.8147e-07
      vertex 0.0576439 -90.5853 3.8147e-07
    endloop
  endfacet
  facet normal 0 0 -1
    outer loop
      vertex 4.60076 -4.22467 3.8147e-07
      vertex 1.33329 -0.50559 3.8147e-07
      vertex 1.85195 -0.228361 3.8147e-07
    endloop
  endfacet
  facet normal -0 0 -1
    outer loop
      vertex 4.22467 -88.3992 3.8147e-07
      vertex 0 -90 3.8147e-07
      vertex 3.9832 -87.9253 3.8147e-07
    endloop
  endfacet
  facet normal 0 0 -1
    outer loop
      vertex 4.60076 -4.22467 3.8147e-07
      vertex 0.878679 -0.878679 3.8147e-07
      vertex 1.33329 -0.50559 3.8147e-07
    endloop
  endfacet
  facet normal -0 0 -1
    outer loop
      vertex 3.9832 -87.9253 3.8147e-07
      vertex 0 -90 3.8147e-07
      vertex 3.9 -87.4 3.8147e-07
    endloop
  endfacet
  facet normal 0 0 -1
    outer loop
      vertex 4.22467 -4.60076 3.8147e-07
      vertex 0.50559 -1.33329 3.8147e-07
      vertex 0.878679 -0.878679 3.8147e-07
    endloop
  endfacet
  facet normal 0 0 -1
    outer loop
      vertex 4.22467 -4.60076 3.8147e-07
      vertex 0.228361 -1.85195 3.8147e-07
      vertex 0.50559 -1.33329 3.8147e-07
    endloop
  endfacet
  facet normal 0 0 -1
    outer loop
      vertex 4.22467 -4.60076 3.8147e-07
      vertex 0.0576439 -2.41473 3.8147e-07
      vertex 0.228361 -1.85195 3.8147e-07
    endloop
  endfacet
  facet normal -1 0 0
    outer loop
      vertex 0 -90 3.8147e-07
      vertex 0 -3 2.4
      vertex 0 -3 3.8147e-07
    endloop
  endfacet
  facet normal -1 -0 0
    outer loop
      vertex 0 -3 2.4
      vertex 0 -90 3.8147e-07
      vertex 0 -90 2.4
    endloop
  endfacet
  facet normal -0.995185 -0.0980119 0
    outer loop
      vertex 0.0576439 -90.5853 3.8147e-07
      vertex 0 -90 2.4
      vertex 0 -90 3.8147e-07
    endloop
  endfacet
  facet normal -0.995185 -0.0980119 0
    outer loop
      vertex 0 -90 2.4
      vertex 0.0576439 -90.5853 3.8147e-07
      vertex 0.0576439 -90.5853 2.4
    endloop
  endfacet
  facet normal -0.471358 -0.881942 0
    outer loop
      vertex 1.33329 -92.4944 3.8147e-07
      vertex 1.85195 -92.7716 2.4
      vertex 1.33329 -92.4944 2.4
    endloop
  endfacet
  facet normal -0.471358 -0.881942 -0
    outer loop
      vertex 1.85195 -92.7716 2.4
      vertex 1.33329 -92.4944 3.8147e-07
      vertex 1.85195 -92.7716 3.8147e-07
    endloop
  endfacet
  facet normal 0 -1 0
    outer loop
      vertex 3 -93 3.8147e-07
      vertex 109.4 -93 2.4
      vertex 3 -93 2.4
    endloop
  endfacet
  facet normal 0 -1 -0
    outer loop
      vertex 109.4 -93 2.4
      vertex 3 -93 3.8147e-07
      vertex 109.4 -93 3.8147e-07
    endloop
  endfacet
  facet normal 0 1 -0
    outer loop
      vertex 109.4 0 3.8147e-07
      vertex 3 0 2.4
      vertex 109.4 0 2.4
    endloop
  endfacet
  facet normal 0 1 0
    outer loop
      vertex 3 0 2.4
      vertex 109.4 0 3.8147e-07
      vertex 3 0 3.8147e-07
    endloop
  endfacet
  facet normal 1 -0 0
    outer loop
      vertex 112.4 -90 2.4
      vertex 112.4 -3 3.8147e-07
      vertex 112.4 -3 2.4
    endloop
  endfacet
  facet normal 1 0 0
    outer loop
      vertex 112.4 -3 3.8147e-07
      vertex 112.4 -90 2.4
      vertex 112.4 -90 3.8147e-07
    endloop
  endfacet
  facet normal -0.471396 0.881922 0
    outer loop
      vertex 1.85195 -0.228361 3.8147e-07
      vertex 1.33329 -0.50559 2.4
      vertex 1.85195 -0.228361 2.4
    endloop
  endfacet
  facet normal -0.471396 0.881922 0
    outer loop
      vertex 1.33329 -0.50559 2.4
      vertex 1.85195 -0.228361 3.8147e-07
      vertex 1.33329 -0.50559 3.8147e-07
    endloop
  endfacet
  facet normal -0.773011 0.634393 0
    outer loop
      vertex 0.50559 -1.33329 3.8147e-07
      vertex 0.878679 -0.878679 2.4
      vertex 0.878679 -0.878679 3.8147e-07
    endloop
  endfacet
  facet normal -0.773011 0.634393 0
    outer loop
      vertex 0.878679 -0.878679 2.4
      vertex 0.50559 -1.33329 3.8147e-07
      vertex 0.50559 -1.33329 2.4
    endloop
  endfacet
  facet normal -0.634393 0.773011 0
    outer loop
      vertex 1.33329 -0.50559 3.8147e-07
      vertex 0.878679 -0.878679 2.4
      vertex 1.33329 -0.50559 2.4
    endloop
  endfacet
  facet normal -0.634393 0.773011 0
    outer loop
      vertex 0.878679 -0.878679 2.4
      vertex 1.33329 -0.50559 3.8147e-07
      vertex 0.878679 -0.878679 3.8147e-07
    endloop
  endfacet
  facet normal -0.881937 -0.471368 0
    outer loop
      vertex 0.50559 -91.6667 3.8147e-07
      vertex 0.228361 -91.148 2.4
      vertex 0.228361 -91.148 3.8147e-07
    endloop
  endfacet
  facet normal -0.881937 -0.471368 0
    outer loop
      vertex 0.228361 -91.148 2.4
      vertex 0.50559 -91.6667 3.8147e-07
      vertex 0.50559 -91.6667 2.4
    endloop
  endfacet
  facet normal -0.773003 -0.634402 0
    outer loop
      vertex 0.878679 -92.1213 3.8147e-07
      vertex 0.50559 -91.6667 2.4
      vertex 0.50559 -91.6667 3.8147e-07
    endloop
  endfacet
  facet normal -0.773003 -0.634402 0
    outer loop
      vertex 0.50559 -91.6667 2.4
      vertex 0.878679 -92.1213 3.8147e-07
      vertex 0.878679 -92.1213 2.4
    endloop
  endfacet
  facet normal 0.773078 -0.634311 0
    outer loop
      vertex 111.521 -92.1213 2.4
      vertex 111.894 -91.6667 3.8147e-07
      vertex 111.894 -91.6667 2.4
    endloop
  endfacet
  facet normal 0.773078 -0.634311 0
    outer loop
      vertex 111.894 -91.6667 3.8147e-07
      vertex 111.521 -92.1213 2.4
      vertex 111.521 -92.1213 3.8147e-07
    endloop
  endfacet
  facet normal 0.0979877 -0.995188 0
    outer loop
      vertex 109.4 -93 3.8147e-07
      vertex 109.985 -92.9424 2.4
      vertex 109.4 -93 2.4
    endloop
  endfacet
  facet normal 0.0979877 -0.995188 0
    outer loop
      vertex 109.985 -92.9424 2.4
      vertex 109.4 -93 3.8147e-07
      vertex 109.985 -92.9424 3.8147e-07
    endloop
  endfacet
  facet normal -0.881922 0.471396 0
    outer loop
      vertex 0.228361 -1.85195 3.8147e-07
      vertex 0.50559 -1.33329 2.4
      vertex 0.50559 -1.33329 3.8147e-07
    endloop
  endfacet
  facet normal -0.881922 0.471396 0
    outer loop
      vertex 0.50559 -1.33329 2.4
      vertex 0.228361 -1.85195 3.8147e-07
      vertex 0.228361 -1.85195 2.4
    endloop
  endfacet
  facet normal -0.95694 0.290284 0
    outer loop
      vertex 0.0576439 -2.41473 3.8147e-07
      vertex 0.228361 -1.85195 2.4
      vertex 0.228361 -1.85195 3.8147e-07
    endloop
  endfacet
  facet normal -0.95694 0.290284 0
    outer loop
      vertex 0.228361 -1.85195 2.4
      vertex 0.0576439 -2.41473 3.8147e-07
      vertex 0.0576439 -2.41473 2.4
    endloop
  endfacet
  facet normal -0.290413 -0.956901 0
    outer loop
      vertex 1.85195 -92.7716 3.8147e-07
      vertex 2.41473 -92.9424 2.4
      vertex 1.85195 -92.7716 2.4
    endloop
  endfacet
  facet normal -0.290413 -0.956901 -0
    outer loop
      vertex 2.41473 -92.9424 2.4
      vertex 1.85195 -92.7716 3.8147e-07
      vertex 2.41473 -92.9424 3.8147e-07
    endloop
  endfacet
  facet normal -0.956929 -0.290322 0
    outer loop
      vertex 0.228361 -91.148 3.8147e-07
      vertex 0.0576439 -90.5853 2.4
      vertex 0.0576439 -90.5853 3.8147e-07
    endloop
  endfacet
  facet normal -0.956929 -0.290322 0
    outer loop
      vertex 0.0576439 -90.5853 2.4
      vertex 0.228361 -91.148 3.8147e-07
      vertex 0.228361 -91.148 2.4
    endloop
  endfacet
  facet normal 0.881392 -0.472386 0
    outer loop
      vertex 111.894 -91.6667 2.4
      vertex 112.172 -91.148 3.8147e-07
      vertex 112.172 -91.148 2.4
    endloop
  endfacet
  facet normal 0.881392 -0.472386 0
    outer loop
      vertex 112.172 -91.148 3.8147e-07
      vertex 111.894 -91.6667 2.4
      vertex 111.894 -91.6667 3.8147e-07
    endloop
  endfacet
  facet normal 0.957267 -0.289205 0
    outer loop
      vertex 112.172 -91.148 2.4
      vertex 112.342 -90.5853 3.8147e-07
      vertex 112.342 -90.5853 2.4
    endloop
  endfacet
  facet normal 0.957267 -0.289205 0
    outer loop
      vertex 112.342 -90.5853 3.8147e-07
      vertex 112.172 -91.148 2.4
      vertex 112.172 -91.148 3.8147e-07
    endloop
  endfacet
  facet normal 0.995126 -0.0986115 0
    outer loop
      vertex 112.342 -90.5853 2.4
      vertex 112.4 -90 3.8147e-07
      vertex 112.4 -90 2.4
    endloop
  endfacet
  facet normal 0.995126 -0.0986115 0
    outer loop
      vertex 112.4 -90 3.8147e-07
      vertex 112.342 -90.5853 2.4
      vertex 112.342 -90.5853 3.8147e-07
    endloop
  endfacet
  facet normal 0.471117 -0.882071 0
    outer loop
      vertex 110.548 -92.7716 3.8147e-07
      vertex 111.067 -92.4944 2.4
      vertex 110.548 -92.7716 2.4
    endloop
  endfacet
  facet normal 0.471117 -0.882071 0
    outer loop
      vertex 111.067 -92.4944 2.4
      vertex 110.548 -92.7716 3.8147e-07
      vertex 111.067 -92.4944 3.8147e-07
    endloop
  endfacet
  facet normal 0.634914 -0.772583 0
    outer loop
      vertex 111.067 -92.4944 3.8147e-07
      vertex 111.521 -92.1213 2.4
      vertex 111.067 -92.4944 2.4
    endloop
  endfacet
  facet normal 0.634914 -0.772583 0
    outer loop
      vertex 111.521 -92.1213 2.4
      vertex 111.067 -92.4944 3.8147e-07
      vertex 111.521 -92.1213 3.8147e-07
    endloop
  endfacet
  facet normal 0.290309 -0.956933 0
    outer loop
      vertex 109.985 -92.9424 3.8147e-07
      vertex 110.548 -92.7716 2.4
      vertex 109.985 -92.9424 2.4
    endloop
  endfacet
  facet normal 0.290309 -0.956933 0
    outer loop
      vertex 110.548 -92.7716 2.4
      vertex 109.985 -92.9424 3.8147e-07
      vertex 110.548 -92.7716 3.8147e-07
    endloop
  endfacet
  facet normal -0.0980169 0.995185 0
    outer loop
      vertex 3 0 3.8147e-07
      vertex 2.41473 -0.0576439 2.4
      vertex 3 0 2.4
    endloop
  endfacet
  facet normal -0.0980169 0.995185 0
    outer loop
      vertex 2.41473 -0.0576439 2.4
      vertex 3 0 3.8147e-07
      vertex 2.41473 -0.0576439 3.8147e-07
    endloop
  endfacet
  facet normal 0.471156 0.88205 -0
    outer loop
      vertex 111.067 -0.50559 3.8147e-07
      vertex 110.548 -0.228361 2.4
      vertex 111.067 -0.50559 2.4
    endloop
  endfacet
  facet normal 0.471156 0.88205 0
    outer loop
      vertex 110.548 -0.228361 2.4
      vertex 111.067 -0.50559 3.8147e-07
      vertex 110.548 -0.228361 3.8147e-07
    endloop
  endfacet
  facet normal 0.773085 0.634302 0
    outer loop
      vertex 111.894 -1.33329 2.4
      vertex 111.521 -0.878679 3.8147e-07
      vertex 111.521 -0.878679 2.4
    endloop
  endfacet
  facet normal 0.773085 0.634302 0
    outer loop
      vertex 111.521 -0.878679 3.8147e-07
      vertex 111.894 -1.33329 2.4
      vertex 111.894 -1.33329 3.8147e-07
    endloop
  endfacet
  facet normal 0.995126 0.0986165 0
    outer loop
      vertex 112.4 -3 2.4
      vertex 112.342 -2.41473 3.8147e-07
      vertex 112.342 -2.41473 2.4
    endloop
  endfacet
  facet normal 0.995126 0.0986165 0
    outer loop
      vertex 112.342 -2.41473 3.8147e-07
      vertex 112.4 -3 2.4
      vertex 112.4 -3 3.8147e-07
    endloop
  endfacet
  facet normal 0.957279 0.289167 0
    outer loop
      vertex 112.342 -2.41473 2.4
      vertex 112.172 -1.85195 3.8147e-07
      vertex 112.172 -1.85195 2.4
    endloop
  endfacet
  facet normal 0.957279 0.289167 0
    outer loop
      vertex 112.172 -1.85195 3.8147e-07
      vertex 112.342 -2.41473 2.4
      vertex 112.342 -2.41473 3.8147e-07
    endloop
  endfacet
  facet normal -0.634404 -0.773002 0
    outer loop
      vertex 0.878679 -92.1213 3.8147e-07
      vertex 1.33329 -92.4944 2.4
      vertex 0.878679 -92.1213 2.4
    endloop
  endfacet
  facet normal -0.634404 -0.773002 -0
    outer loop
      vertex 1.33329 -92.4944 2.4
      vertex 0.878679 -92.1213 3.8147e-07
      vertex 1.33329 -92.4944 3.8147e-07
    endloop
  endfacet
  facet normal -0.290284 0.95694 0
    outer loop
      vertex 2.41473 -0.0576439 3.8147e-07
      vertex 1.85195 -0.228361 2.4
      vertex 2.41473 -0.0576439 2.4
    endloop
  endfacet
  facet normal -0.290284 0.95694 0
    outer loop
      vertex 1.85195 -0.228361 2.4
      vertex 2.41473 -0.0576439 3.8147e-07
      vertex 1.85195 -0.228361 3.8147e-07
    endloop
  endfacet
  facet normal 0.634902 0.772592 -0
    outer loop
      vertex 111.521 -0.878679 3.8147e-07
      vertex 111.067 -0.50559 2.4
      vertex 111.521 -0.878679 2.4
    endloop
  endfacet
  facet normal 0.634902 0.772592 0
    outer loop
      vertex 111.067 -0.50559 2.4
      vertex 111.521 -0.878679 3.8147e-07
      vertex 111.067 -0.50559 3.8147e-07
    endloop
  endfacet
  facet normal 0.29018 0.956972 -0
    outer loop
      vertex 110.548 -0.228361 3.8147e-07
      vertex 109.985 -0.0576439 2.4
      vertex 110.548 -0.228361 2.4
    endloop
  endfacet
  facet normal 0.29018 0.956972 0
    outer loop
      vertex 109.985 -0.0576439 2.4
      vertex 110.548 -0.228361 3.8147e-07
      vertex 109.985 -0.0576439 3.8147e-07
    endloop
  endfacet
  facet normal 0.0980617 0.99518 -0
    outer loop
      vertex 109.985 -0.0576439 3.8147e-07
      vertex 109.4 0 2.4
      vertex 109.985 -0.0576439 2.4
    endloop
  endfacet
  facet normal 0.0980617 0.99518 0
    outer loop
      vertex 109.4 0 2.4
      vertex 109.985 -0.0576439 3.8147e-07
      vertex 109.4 0 3.8147e-07
    endloop
  endfacet
  facet normal 0.881376 0.472415 0
    outer loop
      vertex 112.172 -1.85195 2.4
      vertex 111.894 -1.33329 3.8147e-07
      vertex 111.894 -1.33329 2.4
    endloop
  endfacet
  facet normal 0.881376 0.472415 0
    outer loop
      vertex 111.894 -1.33329 3.8147e-07
      vertex 112.172 -1.85195 2.4
      vertex 112.172 -1.85195 3.8147e-07
    endloop
  endfacet
  facet normal -1 0 0
    outer loop
      vertex 2.9 -90.1 2.4
      vertex 2.9 -2.9 5.4
      vertex 2.9 -2.9 2.4
    endloop
  endfacet
  facet normal -1 -0 0
    outer loop
      vertex 2.9 -2.9 5.4
      vertex 2.9 -90.1 2.4
      vertex 2.9 -90.1 5.4
    endloop
  endfacet
  facet normal 1 -0 0
    outer loop
      vertex 109.5 -90.1 5.4
      vertex 109.5 -2.9 2.4
      vertex 109.5 -2.9 5.4
    endloop
  endfacet
  facet normal 1 0 0
    outer loop
      vertex 109.5 -2.9 2.4
      vertex 109.5 -90.1 5.4
      vertex 109.5 -90.1 2.4
    endloop
  endfacet
  facet normal -0 0 1
    outer loop
      vertex 108.417 -86.8747 5.4
      vertex 109.5 -90.1 5.4
      vertex 108.417 -6.12533 5.4
    endloop
  endfacet
  facet normal 0 0 1
    outer loop
      vertex 109.5 -90.1 5.4
      vertex 108.417 -86.8747 5.4
      vertex 108.5 -87.4 5.4
    endloop
  endfacet
  facet normal -0 0 1
    outer loop
      vertex 108.175 -6.59923 5.4
      vertex 108.417 -86.8747 5.4
      vertex 108.417 -6.12533 5.4
    endloop
  endfacet
  facet normal 0 0 1
    outer loop
      vertex 108.175 -6.59923 5.4
      vertex 108.175 -86.4008 5.4
      vertex 108.417 -86.8747 5.4
    endloop
  endfacet
  facet normal -0 0 1
    outer loop
      vertex 107.799 -6.97533 5.4
      vertex 108.175 -86.4008 5.4
      vertex 108.175 -6.59923 5.4
    endloop
  endfacet
  facet normal 0 0 1
    outer loop
      vertex 107.799 -6.97533 5.4
      vertex 107.799 -86.0247 5.4
      vertex 108.175 -86.4008 5.4
    endloop
  endfacet
  facet normal -0 0 1
    outer loop
      vertex 107.5 -7.1278 5.4
      vertex 107.799 -86.0247 5.4
      vertex 107.799 -6.97533 5.4
    endloop
  endfacet
  facet normal 0 0 1
    outer loop
      vertex 107.799 -86.0247 5.4
      vertex 107.5 -7.1278 5.4
      vertex 107.5 -85.8722 5.4
    endloop
  endfacet
  facet normal 0 0 1
    outer loop
      vertex 108.417 -6.12533 5.4
      vertex 109.5 -2.9 5.4
      vertex 108.5 -5.6 5.4
    endloop
  endfacet
  facet normal 0 0 1
    outer loop
      vertex 109.5 -2.9 5.4
      vertex 108.417 -5.07467 5.4
      vertex 108.5 -5.6 5.4
    endloop
  endfacet
  facet normal 0 0 1
    outer loop
      vertex 109.5 -2.9 5.4
      vertex 108.175 -4.60076 5.4
      vertex 108.417 -5.07467 5.4
    endloop
  endfacet
  facet normal 0 0 1
    outer loop
      vertex 109.5 -2.9 5.4
      vertex 107.799 -4.22467 5.4
      vertex 108.175 -4.60076 5.4
    endloop
  endfacet
  facet normal 0 0 1
    outer loop
      vertex 109.5 -2.9 5.4
      vertex 107.325 -3.9832 5.4
      vertex 107.799 -4.22467 5.4
    endloop
  endfacet
  facet normal 0 0 1
    outer loop
      vertex 109.5 -2.9 5.4
      vertex 106.8 -3.9 5.4
      vertex 107.325 -3.9832 5.4
    endloop
  endfacet
  facet normal 0 0 1
    outer loop
      vertex 109.5 -2.9 5.4
      vertex 106.275 -3.9832 5.4
      vertex 106.8 -3.9 5.4
    endloop
  endfacet
  facet normal 0 0 1
    outer loop
      vertex 105.425 -4.60076 5.4
      vertex 96.2 -4.2 5.4
      vertex 105.272 -4.9 5.4
    endloop
  endfacet
  facet normal 0 0 1
    outer loop
      vertex 105.801 -4.22467 5.4
      vertex 96.2 -4.2 5.4
      vertex 105.425 -4.60076 5.4
    endloop
  endfacet
  facet normal 0 0 1
    outer loop
      vertex 106.275 -3.9832 5.4
      vertex 96.2 -4.2 5.4
      vertex 105.801 -4.22467 5.4
    endloop
  endfacet
  facet normal 0 0 1
    outer loop
      vertex 109.5 -2.9 5.4
      vertex 96.2 -4.2 5.4
      vertex 106.275 -3.9832 5.4
    endloop
  endfacet
  facet normal 0 0 1
    outer loop
      vertex 109.5 -2.9 5.4
      vertex 16.2 -4.2 5.4
      vertex 96.2 -4.2 5.4
    endloop
  endfacet
  facet normal 0 0 1
    outer loop
      vertex 16.2 -4.2 5.4
      vertex 7.1278 -4.9 5.4
      vertex 16.2 -4.9 5.4
    endloop
  endfacet
  facet normal 0 0 1
    outer loop
      vertex 16.2 -4.2 5.4
      vertex 6.97533 -4.60076 5.4
      vertex 7.1278 -4.9 5.4
    endloop
  endfacet
  facet normal 0 0 1
    outer loop
      vertex 16.2 -4.2 5.4
      vertex 6.59923 -4.22467 5.4
      vertex 6.97533 -4.60076 5.4
    endloop
  endfacet
  facet normal -0 0 1
    outer loop
      vertex 2.9 -2.9 5.4
      vertex 16.2 -4.2 5.4
      vertex 109.5 -2.9 5.4
    endloop
  endfacet
  facet normal 0 0 1
    outer loop
      vertex 16.2 -4.2 5.4
      vertex 6.12533 -3.9832 5.4
      vertex 6.59923 -4.22467 5.4
    endloop
  endfacet
  facet normal 0 0 1
    outer loop
      vertex 16.2 -4.2 5.4
      vertex 2.9 -2.9 5.4
      vertex 6.12533 -3.9832 5.4
    endloop
  endfacet
  facet normal 0 0 1
    outer loop
      vertex 2.9 -90.1 5.4
      vertex 3.9832 -86.8747 5.4
      vertex 2.9 -2.9 5.4
    endloop
  endfacet
  facet normal 0 0 1
    outer loop
      vertex 3.9832 -5.07467 5.4
      vertex 2.9 -2.9 5.4
      vertex 3.9 -5.6 5.4
    endloop
  endfacet
  facet normal 0 0 1
    outer loop
      vertex 4.22467 -4.60076 5.4
      vertex 2.9 -2.9 5.4
      vertex 3.9832 -5.07467 5.4
    endloop
  endfacet
  facet normal 0 0 1
    outer loop
      vertex 4.60076 -4.22467 5.4
      vertex 2.9 -2.9 5.4
      vertex 4.22467 -4.60076 5.4
    endloop
  endfacet
  facet normal 0 0 1
    outer loop
      vertex 5.07467 -3.9832 5.4
      vertex 2.9 -2.9 5.4
      vertex 4.60076 -4.22467 5.4
    endloop
  endfacet
  facet normal 0 0 1
    outer loop
      vertex 5.6 -3.9 5.4
      vertex 2.9 -2.9 5.4
      vertex 5.07467 -3.9832 5.4
    endloop
  endfacet
  facet normal 0 0 1
    outer loop
      vertex 6.12533 -3.9832 5.4
      vertex 2.9 -2.9 5.4
      vertex 5.6 -3.9 5.4
    endloop
  endfacet
  facet normal 0 0 1
    outer loop
      vertex 109.5 -2.9 5.4
      vertex 108.417 -6.12533 5.4
      vertex 109.5 -90.1 5.4
    endloop
  endfacet
  facet normal -0 0 1
    outer loop
      vertex 108.417 -87.9253 5.4
      vertex 109.5 -90.1 5.4
      vertex 108.5 -87.4 5.4
    endloop
  endfacet
  facet normal -0 0 1
    outer loop
      vertex 108.175 -88.3992 5.4
      vertex 109.5 -90.1 5.4
      vertex 108.417 -87.9253 5.4
    endloop
  endfacet
  facet normal -0 0 1
    outer loop
      vertex 107.799 -88.7753 5.4
      vertex 109.5 -90.1 5.4
      vertex 108.175 -88.3992 5.4
    endloop
  endfacet
  facet normal -0 0 1
    outer loop
      vertex 107.325 -89.0168 5.4
      vertex 109.5 -90.1 5.4
      vertex 107.799 -88.7753 5.4
    endloop
  endfacet
  facet normal -0 0 1
    outer loop
      vertex 106.8 -89.1 5.4
      vertex 109.5 -90.1 5.4
      vertex 107.325 -89.0168 5.4
    endloop
  endfacet
  facet normal 0 0 1
    outer loop
      vertex 106.275 -89.0168 5.4
      vertex 109.5 -90.1 5.4
      vertex 106.8 -89.1 5.4
    endloop
  endfacet
  facet normal -0 0 1
    outer loop
      vertex 7.1278 -88.1 5.4
      vertex 105.425 -88.3992 5.4
      vertex 105.272 -88.1 5.4
    endloop
  endfacet
  facet normal 0 0 1
    outer loop
      vertex 6.97533 -88.3992 5.4
      vertex 105.425 -88.3992 5.4
      vertex 7.1278 -88.1 5.4
    endloop
  endfacet
  facet normal 0 0 1
    outer loop
      vertex 105.425 -88.3992 5.4
      vertex 6.97533 -88.3992 5.4
      vertex 105.801 -88.7753 5.4
    endloop
  endfacet
  facet normal 0 0 1
    outer loop
      vertex 6.59923 -88.7753 5.4
      vertex 105.801 -88.7753 5.4
      vertex 6.97533 -88.3992 5.4
    endloop
  endfacet
  facet normal 0 0 1
    outer loop
      vertex 105.801 -88.7753 5.4
      vertex 6.59923 -88.7753 5.4
      vertex 106.275 -89.0168 5.4
    endloop
  endfacet
  facet normal 0 0 1
    outer loop
      vertex 6.12533 -89.0168 5.4
      vertex 106.275 -89.0168 5.4
      vertex 6.59923 -88.7753 5.4
    endloop
  endfacet
  facet normal 0 0 1
    outer loop
      vertex 106.275 -89.0168 5.4
      vertex 6.12533 -89.0168 5.4
      vertex 109.5 -90.1 5.4
    endloop
  endfacet
  facet normal 0 0 1
    outer loop
      vertex 2.9 -90.1 5.4
      vertex 6.12533 -89.0168 5.4
      vertex 5.6 -89.1 5.4
    endloop
  endfacet
  facet normal 0 0 1
    outer loop
      vertex 6.12533 -89.0168 5.4
      vertex 2.9 -90.1 5.4
      vertex 109.5 -90.1 5.4
    endloop
  endfacet
  facet normal 0 0 1
    outer loop
      vertex 5.07467 -89.0168 5.4
      vertex 2.9 -90.1 5.4
      vertex 5.6 -89.1 5.4
    endloop
  endfacet
  facet normal 0 0 1
    outer loop
      vertex 4.60076 -88.7753 5.4
      vertex 2.9 -90.1 5.4
      vertex 5.07467 -89.0168 5.4
    endloop
  endfacet
  facet normal 0 0 1
    outer loop
      vertex 4.22467 -88.3992 5.4
      vertex 2.9 -90.1 5.4
      vertex 4.60076 -88.7753 5.4
    endloop
  endfacet
  facet normal 0 0 1
    outer loop
      vertex 3.9832 -87.9253 5.4
      vertex 2.9 -90.1 5.4
      vertex 4.22467 -88.3992 5.4
    endloop
  endfacet
  facet normal 0 0 1
    outer loop
      vertex 3.9 -87.4 5.4
      vertex 2.9 -90.1 5.4
      vertex 3.9832 -87.9253 5.4
    endloop
  endfacet
  facet normal 0 0 1
    outer loop
      vertex 3.9832 -86.8747 5.4
      vertex 2.9 -90.1 5.4
      vertex 3.9 -87.4 5.4
    endloop
  endfacet
  facet normal 0 0 1
    outer loop
      vertex 105.272 -4.9 5.4
      vertex 96.2 -4.2 5.4
      vertex 96.2 -4.9 5.4
    endloop
  endfacet
  facet normal 0 0 1
    outer loop
      vertex 4.60076 -6.97533 5.4
      vertex 4.9 -85.8722 5.4
      vertex 4.9 -7.1278 5.4
    endloop
  endfacet
  facet normal 0 0 1
    outer loop
      vertex 4.60076 -6.97533 5.4
      vertex 4.60076 -86.0247 5.4
      vertex 4.9 -85.8722 5.4
    endloop
  endfacet
  facet normal 0 0 1
    outer loop
      vertex 4.22467 -6.59923 5.4
      vertex 4.60076 -86.0247 5.4
      vertex 4.60076 -6.97533 5.4
    endloop
  endfacet
  facet normal 0 0 1
    outer loop
      vertex 4.22467 -6.59923 5.4
      vertex 4.22467 -86.4008 5.4
      vertex 4.60076 -86.0247 5.4
    endloop
  endfacet
  facet normal 0 0 1
    outer loop
      vertex 3.9832 -6.12533 5.4
      vertex 4.22467 -86.4008 5.4
      vertex 4.22467 -6.59923 5.4
    endloop
  endfacet
  facet normal 0 0 1
    outer loop
      vertex 3.9832 -6.12533 5.4
      vertex 3.9832 -86.8747 5.4
      vertex 4.22467 -86.4008 5.4
    endloop
  endfacet
  facet normal 0 0 1
    outer loop
      vertex 2.9 -2.9 5.4
      vertex 3.9832 -6.12533 5.4
      vertex 3.9 -5.6 5.4
    endloop
  endfacet
  facet normal 0 0 1
    outer loop
      vertex 3.9832 -6.12533 5.4
      vertex 2.9 -2.9 5.4
      vertex 3.9832 -86.8747 5.4
    endloop
  endfacet
  facet normal 0 1 -0
    outer loop
      vertex 109.5 -2.9 2.4
      vertex 2.9 -2.9 5.4
      vertex 109.5 -2.9 5.4
    endloop
  endfacet
  facet normal 0 1 0
    outer loop
      vertex 2.9 -2.9 5.4
      vertex 109.5 -2.9 2.4
      vertex 2.9 -2.9 2.4
    endloop
  endfacet
  facet normal 0 -1 0
    outer loop
      vertex 2.9 -90.1 2.4
      vertex 109.5 -90.1 5.4
      vertex 2.9 -90.1 5.4
    endloop
  endfacet
  facet normal 0 -1 -0
    outer loop
      vertex 109.5 -90.1 5.4
      vertex 2.9 -90.1 2.4
      vertex 109.5 -90.1 2.4
    endloop
  endfacet
  facet normal 0.98769 0.156427 0
    outer loop
      vertex 3.9832 -6.12533 5.4
      vertex 3.9 -5.6 3.8147e-07
      vertex 3.9 -5.6 5.4
    endloop
  endfacet
  facet normal 0.98769 0.156427 0
    outer loop
      vertex 3.9 -5.6 3.8147e-07
      vertex 3.9832 -6.12533 5.4
      vertex 3.9832 -6.12533 3.8147e-07
    endloop
  endfacet
  facet normal -0.453999 0.891002 0
    outer loop
      vertex 6.59923 -6.97533 3.8147e-07
      vertex 6.12533 -7.2168 2.4
      vertex 6.59923 -6.97533 2.4
    endloop
  endfacet
  facet normal -0.453999 0.891002 0
    outer loop
      vertex 6.12533 -7.2168 2.4
      vertex 6.59923 -6.97533 3.8147e-07
      vertex 6.12533 -7.2168 3.8147e-07
    endloop
  endfacet
  facet normal -0.98769 -0.156427 0
    outer loop
      vertex 7.3 -5.6 3.8147e-07
      vertex 7.2168 -5.07467 2.4
      vertex 7.2168 -5.07467 3.8147e-07
    endloop
  endfacet
  facet normal -0.98769 -0.156427 0
    outer loop
      vertex 7.2168 -5.07467 2.4
      vertex 7.3 -5.6 3.8147e-07
      vertex 7.3 -5.6 2.4
    endloop
  endfacet
  facet normal 0.453992 -0.891006 0
    outer loop
      vertex 4.60076 -4.22467 3.8147e-07
      vertex 5.07467 -3.9832 5.4
      vertex 4.60076 -4.22467 5.4
    endloop
  endfacet
  facet normal 0.453992 -0.891006 0
    outer loop
      vertex 5.07467 -3.9832 5.4
      vertex 4.60076 -4.22467 3.8147e-07
      vertex 5.07467 -3.9832 3.8147e-07
    endloop
  endfacet
  facet normal -0.707107 0.707107 0
    outer loop
      vertex 6.59923 -6.97533 3.8147e-07
      vertex 6.97533 -6.59923 2.4
      vertex 6.97533 -6.59923 3.8147e-07
    endloop
  endfacet
  facet normal -0.707107 0.707107 0
    outer loop
      vertex 6.97533 -6.59923 2.4
      vertex 6.59923 -6.97533 3.8147e-07
      vertex 6.59923 -6.97533 2.4
    endloop
  endfacet
  facet normal -0.891002 0.453999 0
    outer loop
      vertex 6.97533 -6.59923 3.8147e-07
      vertex 7.2168 -6.12533 2.4
      vertex 7.2168 -6.12533 3.8147e-07
    endloop
  endfacet
  facet normal -0.891002 0.453999 0
    outer loop
      vertex 7.2168 -6.12533 2.4
      vertex 6.97533 -6.59923 3.8147e-07
      vertex 6.97533 -6.59923 2.4
    endloop
  endfacet
  facet normal 0.453995 0.891004 0
    outer loop
      vertex 5.07467 -7.2168 2.4
      vertex 5.07467 -7.2168 3.8147e-07
      vertex 4.9 -7.1278 2.4
    endloop
  endfacet
  facet normal 0.45399 0.891007 -0
    outer loop
      vertex 4.9 -7.1278 2.4
      vertex 4.60076 -6.97533 5.4
      vertex 4.9 -7.1278 5.4
    endloop
  endfacet
  facet normal 0.453992 0.891006 -3.33016e-07
    outer loop
      vertex 4.60076 -6.97533 3.8147e-07
      vertex 4.9 -7.1278 2.4
      vertex 5.07467 -7.2168 3.8147e-07
    endloop
  endfacet
  facet normal 0.45399 0.891007 0
    outer loop
      vertex 4.9 -7.1278 2.4
      vertex 4.60076 -6.97533 3.8147e-07
      vertex 4.60076 -6.97533 5.4
    endloop
  endfacet
  facet normal 0.891002 0.453999 0
    outer loop
      vertex 4.22467 -6.59923 5.4
      vertex 3.9832 -6.12533 3.8147e-07
      vertex 3.9832 -6.12533 5.4
    endloop
  endfacet
  facet normal 0.891002 0.453999 0
    outer loop
      vertex 3.9832 -6.12533 3.8147e-07
      vertex 4.22467 -6.59923 5.4
      vertex 4.22467 -6.59923 3.8147e-07
    endloop
  endfacet
  facet normal 0.707116 0.707097 0
    outer loop
      vertex 4.60076 -6.97533 5.4
      vertex 4.22467 -6.59923 3.8147e-07
      vertex 4.22467 -6.59923 5.4
    endloop
  endfacet
  facet normal 0.707116 0.707097 0
    outer loop
      vertex 4.22467 -6.59923 3.8147e-07
      vertex 4.60076 -6.97533 5.4
      vertex 4.60076 -6.97533 3.8147e-07
    endloop
  endfacet
  facet normal -0.707097 -0.707116 0
    outer loop
      vertex 6.97533 -4.60076 3.8147e-07
      vertex 6.59923 -4.22467 5.4
      vertex 6.59923 -4.22467 3.8147e-07
    endloop
  endfacet
  facet normal -0.707097 -0.707116 0
    outer loop
      vertex 6.59923 -4.22467 5.4
      vertex 6.97533 -4.60076 3.8147e-07
      vertex 6.97533 -4.60076 5.4
    endloop
  endfacet
  facet normal -0.891007 -0.45399 0
    outer loop
      vertex 6.97533 -4.60076 3.8147e-07
      vertex 7.1278 -4.9 2.4
      vertex 6.97533 -4.60076 5.4
    endloop
  endfacet
  facet normal -0.891006 -0.453992 -3.33016e-07
    outer loop
      vertex 7.2168 -5.07467 3.8147e-07
      vertex 7.1278 -4.9 2.4
      vertex 6.97533 -4.60076 3.8147e-07
    endloop
  endfacet
  facet normal -0.891004 -0.453995 0
    outer loop
      vertex 7.1278 -4.9 2.4
      vertex 7.2168 -5.07467 3.8147e-07
      vertex 7.2168 -5.07467 2.4
    endloop
  endfacet
  facet normal -0.891007 -0.45399 0
    outer loop
      vertex 6.97533 -4.60076 5.4
      vertex 7.1278 -4.9 2.4
      vertex 7.1278 -4.9 5.4
    endloop
  endfacet
  facet normal 0.98769 -0.156427 0
    outer loop
      vertex 3.9 -5.6 5.4
      vertex 3.9832 -5.07467 3.8147e-07
      vertex 3.9832 -5.07467 5.4
    endloop
  endfacet
  facet normal 0.98769 -0.156427 0
    outer loop
      vertex 3.9832 -5.07467 3.8147e-07
      vertex 3.9 -5.6 5.4
      vertex 3.9 -5.6 3.8147e-07
    endloop
  endfacet
  facet normal 0.707107 -0.707107 0
    outer loop
      vertex 4.22467 -4.60076 5.4
      vertex 4.60076 -4.22467 3.8147e-07
      vertex 4.60076 -4.22467 5.4
    endloop
  endfacet
  facet normal 0.707107 -0.707107 0
    outer loop
      vertex 4.60076 -4.22467 3.8147e-07
      vertex 4.22467 -4.60076 5.4
      vertex 4.22467 -4.60076 3.8147e-07
    endloop
  endfacet
  facet normal 0.891006 -0.453992 0
    outer loop
      vertex 3.9832 -5.07467 5.4
      vertex 4.22467 -4.60076 3.8147e-07
      vertex 4.22467 -4.60076 5.4
    endloop
  endfacet
  facet normal 0.891006 -0.453992 0
    outer loop
      vertex 4.22467 -4.60076 3.8147e-07
      vertex 3.9832 -5.07467 5.4
      vertex 3.9832 -5.07467 3.8147e-07
    endloop
  endfacet
  facet normal 0.156427 0.98769 -0
    outer loop
      vertex 5.6 -7.3 3.8147e-07
      vertex 5.07467 -7.2168 2.4
      vertex 5.6 -7.3 2.4
    endloop
  endfacet
  facet normal 0.156427 0.98769 0
    outer loop
      vertex 5.07467 -7.2168 2.4
      vertex 5.6 -7.3 3.8147e-07
      vertex 5.07467 -7.2168 3.8147e-07
    endloop
  endfacet
  facet normal -0.98769 0.156427 0
    outer loop
      vertex 7.2168 -6.12533 3.8147e-07
      vertex 7.3 -5.6 2.4
      vertex 7.3 -5.6 3.8147e-07
    endloop
  endfacet
  facet normal -0.98769 0.156427 0
    outer loop
      vertex 7.3 -5.6 2.4
      vertex 7.2168 -6.12533 3.8147e-07
      vertex 7.2168 -6.12533 2.4
    endloop
  endfacet
  facet normal -0.156427 -0.98769 0
    outer loop
      vertex 5.6 -3.9 3.8147e-07
      vertex 6.12533 -3.9832 5.4
      vertex 5.6 -3.9 5.4
    endloop
  endfacet
  facet normal -0.156427 -0.98769 -0
    outer loop
      vertex 6.12533 -3.9832 5.4
      vertex 5.6 -3.9 3.8147e-07
      vertex 6.12533 -3.9832 3.8147e-07
    endloop
  endfacet
  facet normal -0.453999 -0.891002 0
    outer loop
      vertex 6.12533 -3.9832 3.8147e-07
      vertex 6.59923 -4.22467 5.4
      vertex 6.12533 -3.9832 5.4
    endloop
  endfacet
  facet normal -0.453999 -0.891002 -0
    outer loop
      vertex 6.59923 -4.22467 5.4
      vertex 6.12533 -3.9832 3.8147e-07
      vertex 6.59923 -4.22467 3.8147e-07
    endloop
  endfacet
  facet normal 0.156427 -0.98769 0
    outer loop
      vertex 5.07467 -3.9832 3.8147e-07
      vertex 5.6 -3.9 5.4
      vertex 5.07467 -3.9832 5.4
    endloop
  endfacet
  facet normal 0.156427 -0.98769 0
    outer loop
      vertex 5.6 -3.9 5.4
      vertex 5.07467 -3.9832 3.8147e-07
      vertex 5.6 -3.9 3.8147e-07
    endloop
  endfacet
  facet normal -0.156427 0.98769 0
    outer loop
      vertex 6.12533 -7.2168 3.8147e-07
      vertex 5.6 -7.3 2.4
      vertex 6.12533 -7.2168 2.4
    endloop
  endfacet
  facet normal -0.156427 0.98769 0
    outer loop
      vertex 5.6 -7.3 2.4
      vertex 6.12533 -7.2168 3.8147e-07
      vertex 5.6 -7.3 3.8147e-07
    endloop
  endfacet
  facet normal -0.156427 0.98769 0
    outer loop
      vertex 6.12533 -89.0168 3.8147e-07
      vertex 5.6 -89.1 5.4
      vertex 6.12533 -89.0168 5.4
    endloop
  endfacet
  facet normal -0.156427 0.98769 0
    outer loop
      vertex 5.6 -89.1 5.4
      vertex 6.12533 -89.0168 3.8147e-07
      vertex 5.6 -89.1 3.8147e-07
    endloop
  endfacet
  facet normal -0.987688 -0.156436 0
    outer loop
      vertex 7.3 -87.4 3.8147e-07
      vertex 7.2168 -86.8747 2.4
      vertex 7.2168 -86.8747 3.8147e-07
    endloop
  endfacet
  facet normal -0.987688 -0.156436 0
    outer loop
      vertex 7.2168 -86.8747 2.4
      vertex 7.3 -87.4 3.8147e-07
      vertex 7.3 -87.4 2.4
    endloop
  endfacet
  facet normal -0.707107 0.707107 0
    outer loop
      vertex 6.59923 -88.7753 3.8147e-07
      vertex 6.97533 -88.3992 5.4
      vertex 6.97533 -88.3992 3.8147e-07
    endloop
  endfacet
  facet normal -0.707107 0.707107 0
    outer loop
      vertex 6.97533 -88.3992 5.4
      vertex 6.59923 -88.7753 3.8147e-07
      vertex 6.59923 -88.7753 5.4
    endloop
  endfacet
  facet normal -0.891036 0.453933 0
    outer loop
      vertex 7.2168 -87.9253 3.8147e-07
      vertex 7.1278 -88.1 2.4
      vertex 7.2168 -87.9253 2.4
    endloop
  endfacet
  facet normal -0.891002 0.453999 6.03919e-06
    outer loop
      vertex 6.97533 -88.3992 3.8147e-07
      vertex 7.1278 -88.1 2.4
      vertex 7.2168 -87.9253 3.8147e-07
    endloop
  endfacet
  facet normal -0.890982 0.454038 0
    outer loop
      vertex 6.97533 -88.3992 5.4
      vertex 7.1278 -88.1 2.4
      vertex 6.97533 -88.3992 3.8147e-07
    endloop
  endfacet
  facet normal -0.890982 0.454038 0
    outer loop
      vertex 7.1278 -88.1 2.4
      vertex 6.97533 -88.3992 5.4
      vertex 7.1278 -88.1 5.4
    endloop
  endfacet
  facet normal 0.156427 0.98769 -0
    outer loop
      vertex 5.6 -89.1 3.8147e-07
      vertex 5.07467 -89.0168 5.4
      vertex 5.6 -89.1 5.4
    endloop
  endfacet
  facet normal 0.156427 0.98769 0
    outer loop
      vertex 5.07467 -89.0168 5.4
      vertex 5.6 -89.1 3.8147e-07
      vertex 5.07467 -89.0168 3.8147e-07
    endloop
  endfacet
  facet normal 0.454036 0.890983 -0
    outer loop
      vertex 5.07467 -89.0168 3.8147e-07
      vertex 4.60076 -88.7753 5.4
      vertex 5.07467 -89.0168 5.4
    endloop
  endfacet
  facet normal 0.454036 0.890983 0
    outer loop
      vertex 4.60076 -88.7753 5.4
      vertex 5.07467 -89.0168 3.8147e-07
      vertex 4.60076 -88.7753 3.8147e-07
    endloop
  endfacet
  facet normal -0.454044 0.890979 0
    outer loop
      vertex 6.59923 -88.7753 3.8147e-07
      vertex 6.12533 -89.0168 5.4
      vertex 6.59923 -88.7753 5.4
    endloop
  endfacet
  facet normal -0.454044 0.890979 0
    outer loop
      vertex 6.12533 -89.0168 5.4
      vertex 6.59923 -88.7753 3.8147e-07
      vertex 6.12533 -89.0168 3.8147e-07
    endloop
  endfacet
  facet normal 0.987688 0.156436 0
    outer loop
      vertex 3.9832 -87.9253 5.4
      vertex 3.9 -87.4 3.8147e-07
      vertex 3.9 -87.4 5.4
    endloop
  endfacet
  facet normal 0.987688 0.156436 0
    outer loop
      vertex 3.9 -87.4 3.8147e-07
      vertex 3.9832 -87.9253 5.4
      vertex 3.9832 -87.9253 3.8147e-07
    endloop
  endfacet
  facet normal 0.707116 0.707097 0
    outer loop
      vertex 4.60076 -88.7753 5.4
      vertex 4.22467 -88.3992 3.8147e-07
      vertex 4.22467 -88.3992 5.4
    endloop
  endfacet
  facet normal 0.707116 0.707097 0
    outer loop
      vertex 4.22467 -88.3992 3.8147e-07
      vertex 4.60076 -88.7753 5.4
      vertex 4.60076 -88.7753 3.8147e-07
    endloop
  endfacet
  facet normal -0.987688 0.156436 0
    outer loop
      vertex 7.2168 -87.9253 3.8147e-07
      vertex 7.3 -87.4 2.4
      vertex 7.3 -87.4 3.8147e-07
    endloop
  endfacet
  facet normal -0.987688 0.156436 0
    outer loop
      vertex 7.3 -87.4 2.4
      vertex 7.2168 -87.9253 3.8147e-07
      vertex 7.2168 -87.9253 2.4
    endloop
  endfacet
  facet normal 0.987688 -0.156436 0
    outer loop
      vertex 3.9 -87.4 5.4
      vertex 3.9832 -86.8747 3.8147e-07
      vertex 3.9832 -86.8747 5.4
    endloop
  endfacet
  facet normal 0.987688 -0.156436 0
    outer loop
      vertex 3.9832 -86.8747 3.8147e-07
      vertex 3.9 -87.4 5.4
      vertex 3.9 -87.4 3.8147e-07
    endloop
  endfacet
  facet normal -0.454044 -0.890979 0
    outer loop
      vertex 6.12533 -85.7832 3.8147e-07
      vertex 6.59923 -86.0247 2.4
      vertex 6.12533 -85.7832 2.4
    endloop
  endfacet
  facet normal -0.454044 -0.890979 -0
    outer loop
      vertex 6.59923 -86.0247 2.4
      vertex 6.12533 -85.7832 3.8147e-07
      vertex 6.59923 -86.0247 3.8147e-07
    endloop
  endfacet
  facet normal -0.707107 -0.707107 0
    outer loop
      vertex 6.59923 -86.0247 3.8147e-07
      vertex 6.97533 -86.4008 2.4
      vertex 6.59923 -86.0247 2.4
    endloop
  endfacet
  facet normal -0.707107 -0.707107 -0
    outer loop
      vertex 6.97533 -86.4008 2.4
      vertex 6.59923 -86.0247 3.8147e-07
      vertex 6.97533 -86.4008 3.8147e-07
    endloop
  endfacet
  facet normal 0.891002 0.453999 0
    outer loop
      vertex 4.22467 -88.3992 5.4
      vertex 3.9832 -87.9253 3.8147e-07
      vertex 3.9832 -87.9253 5.4
    endloop
  endfacet
  facet normal 0.891002 0.453999 0
    outer loop
      vertex 3.9832 -87.9253 3.8147e-07
      vertex 4.22467 -88.3992 5.4
      vertex 4.22467 -88.3992 3.8147e-07
    endloop
  endfacet
  facet normal 0.707116 -0.707097 0
    outer loop
      vertex 4.22467 -86.4008 3.8147e-07
      vertex 4.60076 -86.0247 5.4
      vertex 4.22467 -86.4008 5.4
    endloop
  endfacet
  facet normal 0.707116 -0.707097 0
    outer loop
      vertex 4.60076 -86.0247 5.4
      vertex 4.22467 -86.4008 3.8147e-07
      vertex 4.60076 -86.0247 3.8147e-07
    endloop
  endfacet
  facet normal -0.891002 -0.453999 0
    outer loop
      vertex 7.2168 -86.8747 3.8147e-07
      vertex 6.97533 -86.4008 2.4
      vertex 6.97533 -86.4008 3.8147e-07
    endloop
  endfacet
  facet normal -0.891002 -0.453999 0
    outer loop
      vertex 6.97533 -86.4008 2.4
      vertex 7.2168 -86.8747 3.8147e-07
      vertex 7.2168 -86.8747 2.4
    endloop
  endfacet
  facet normal 0.891002 -0.453999 0
    outer loop
      vertex 3.9832 -86.8747 5.4
      vertex 4.22467 -86.4008 3.8147e-07
      vertex 4.22467 -86.4008 5.4
    endloop
  endfacet
  facet normal 0.891002 -0.453999 0
    outer loop
      vertex 4.22467 -86.4008 3.8147e-07
      vertex 3.9832 -86.8747 5.4
      vertex 3.9832 -86.8747 3.8147e-07
    endloop
  endfacet
  facet normal -0.156427 -0.98769 0
    outer loop
      vertex 5.6 -85.7 3.8147e-07
      vertex 6.12533 -85.7832 2.4
      vertex 5.6 -85.7 2.4
    endloop
  endfacet
  facet normal -0.156427 -0.98769 -0
    outer loop
      vertex 6.12533 -85.7832 2.4
      vertex 5.6 -85.7 3.8147e-07
      vertex 6.12533 -85.7832 3.8147e-07
    endloop
  endfacet
  facet normal 0.156427 -0.98769 0
    outer loop
      vertex 5.07467 -85.7832 3.8147e-07
      vertex 5.6 -85.7 2.4
      vertex 5.07467 -85.7832 2.4
    endloop
  endfacet
  facet normal 0.156427 -0.98769 0
    outer loop
      vertex 5.6 -85.7 2.4
      vertex 5.07467 -85.7832 3.8147e-07
      vertex 5.6 -85.7 3.8147e-07
    endloop
  endfacet
  facet normal 0.45406 -0.890971 0
    outer loop
      vertex 4.60076 -86.0247 5.4
      vertex 4.9 -85.8722 2.4
      vertex 4.9 -85.8722 5.4
    endloop
  endfacet
  facet normal 0.45406 -0.890971 0
    outer loop
      vertex 4.60076 -86.0247 3.8147e-07
      vertex 4.9 -85.8722 2.4
      vertex 4.60076 -86.0247 5.4
    endloop
  endfacet
  facet normal 0.454036 -0.890983 3.77189e-06
    outer loop
      vertex 5.07467 -85.7832 3.8147e-07
      vertex 4.9 -85.8722 2.4
      vertex 4.60076 -86.0247 3.8147e-07
    endloop
  endfacet
  facet normal 0.453995 -0.891004 0
    outer loop
      vertex 4.9 -85.8722 2.4
      vertex 5.07467 -85.7832 3.8147e-07
      vertex 5.07467 -85.7832 2.4
    endloop
  endfacet
  facet normal -0.987748 0.15606 0
    outer loop
      vertex 108.417 -6.12533 3.8147e-07
      vertex 108.5 -5.6 5.4
      vertex 108.5 -5.6 3.8147e-07
    endloop
  endfacet
  facet normal -0.987748 0.15606 0
    outer loop
      vertex 108.5 -5.6 5.4
      vertex 108.417 -6.12533 3.8147e-07
      vertex 108.417 -6.12533 5.4
    endloop
  endfacet
  facet normal 0.987748 0.15606 0
    outer loop
      vertex 105.183 -6.12533 2.4
      vertex 105.1 -5.6 3.8147e-07
      vertex 105.1 -5.6 2.4
    endloop
  endfacet
  facet normal 0.987748 0.15606 0
    outer loop
      vertex 105.1 -5.6 3.8147e-07
      vertex 105.183 -6.12533 2.4
      vertex 105.183 -6.12533 3.8147e-07
    endloop
  endfacet
  facet normal -0.156523 0.987674 0
    outer loop
      vertex 107.325 -7.2168 3.8147e-07
      vertex 106.8 -7.3 2.4
      vertex 107.325 -7.2168 2.4
    endloop
  endfacet
  facet normal -0.156523 0.987674 0
    outer loop
      vertex 106.8 -7.3 2.4
      vertex 107.325 -7.2168 3.8147e-07
      vertex 106.8 -7.3 3.8147e-07
    endloop
  endfacet
  facet normal -0.707191 -0.707022 0
    outer loop
      vertex 107.799 -4.22467 3.8147e-07
      vertex 108.175 -4.60076 5.4
      vertex 107.799 -4.22467 5.4
    endloop
  endfacet
  facet normal -0.707191 -0.707022 -0
    outer loop
      vertex 108.175 -4.60076 5.4
      vertex 107.799 -4.22467 3.8147e-07
      vertex 108.175 -4.60076 3.8147e-07
    endloop
  endfacet
  facet normal 0.453923 -0.891041 0
    outer loop
      vertex 105.801 -4.22467 3.8147e-07
      vertex 106.275 -3.9832 5.4
      vertex 105.801 -4.22467 5.4
    endloop
  endfacet
  facet normal 0.453923 -0.891041 0
    outer loop
      vertex 106.275 -3.9832 5.4
      vertex 105.801 -4.22467 3.8147e-07
      vertex 106.275 -3.9832 3.8147e-07
    endloop
  endfacet
  facet normal -0.890599 0.45479 0
    outer loop
      vertex 108.175 -6.59923 3.8147e-07
      vertex 108.417 -6.12533 5.4
      vertex 108.417 -6.12533 3.8147e-07
    endloop
  endfacet
  facet normal -0.890599 0.45479 0
    outer loop
      vertex 108.417 -6.12533 5.4
      vertex 108.175 -6.59923 3.8147e-07
      vertex 108.175 -6.59923 5.4
    endloop
  endfacet
  facet normal 0.156523 0.987674 -0
    outer loop
      vertex 106.8 -7.3 3.8147e-07
      vertex 106.275 -7.2168 2.4
      vertex 106.8 -7.3 2.4
    endloop
  endfacet
  facet normal 0.156523 0.987674 0
    outer loop
      vertex 106.275 -7.2168 2.4
      vertex 106.8 -7.3 3.8147e-07
      vertex 106.275 -7.2168 3.8147e-07
    endloop
  endfacet
  facet normal 0.453923 0.891041 -0
    outer loop
      vertex 106.275 -7.2168 3.8147e-07
      vertex 105.801 -6.97533 2.4
      vertex 106.275 -7.2168 2.4
    endloop
  endfacet
  facet normal 0.453923 0.891041 0
    outer loop
      vertex 105.801 -6.97533 2.4
      vertex 106.275 -7.2168 3.8147e-07
      vertex 105.801 -6.97533 3.8147e-07
    endloop
  endfacet
  facet normal 0.890599 0.45479 0
    outer loop
      vertex 105.425 -6.59923 2.4
      vertex 105.183 -6.12533 3.8147e-07
      vertex 105.183 -6.12533 2.4
    endloop
  endfacet
  facet normal 0.890599 0.45479 0
    outer loop
      vertex 105.183 -6.12533 3.8147e-07
      vertex 105.425 -6.59923 2.4
      vertex 105.425 -6.59923 3.8147e-07
    endloop
  endfacet
  facet normal 0.707201 0.707013 -0
    outer loop
      vertex 105.801 -6.97533 3.8147e-07
      vertex 105.425 -6.59923 2.4
      vertex 105.801 -6.97533 2.4
    endloop
  endfacet
  facet normal 0.707201 0.707013 0
    outer loop
      vertex 105.425 -6.59923 2.4
      vertex 105.801 -6.97533 3.8147e-07
      vertex 105.425 -6.59923 3.8147e-07
    endloop
  endfacet
  facet normal -0.987748 -0.15606 0
    outer loop
      vertex 108.5 -5.6 3.8147e-07
      vertex 108.417 -5.07467 5.4
      vertex 108.417 -5.07467 3.8147e-07
    endloop
  endfacet
  facet normal -0.987748 -0.15606 0
    outer loop
      vertex 108.417 -5.07467 5.4
      vertex 108.5 -5.6 3.8147e-07
      vertex 108.5 -5.6 5.4
    endloop
  endfacet
  facet normal 0.987748 -0.15606 0
    outer loop
      vertex 105.1 -5.6 2.4
      vertex 105.183 -5.07467 3.8147e-07
      vertex 105.183 -5.07467 2.4
    endloop
  endfacet
  facet normal 0.987748 -0.15606 0
    outer loop
      vertex 105.183 -5.07467 3.8147e-07
      vertex 105.1 -5.6 2.4
      vertex 105.1 -5.6 3.8147e-07
    endloop
  endfacet
  facet normal 0.707191 -0.707022 0
    outer loop
      vertex 105.425 -4.60076 3.8147e-07
      vertex 105.801 -4.22467 5.4
      vertex 105.425 -4.60076 5.4
    endloop
  endfacet
  facet normal 0.707191 -0.707022 0
    outer loop
      vertex 105.801 -4.22467 5.4
      vertex 105.425 -4.60076 3.8147e-07
      vertex 105.801 -4.22467 3.8147e-07
    endloop
  endfacet
  facet normal 0.890368 -0.455241 0
    outer loop
      vertex 105.272 -4.9 2.4
      vertex 105.425 -4.60076 5.4
      vertex 105.272 -4.9 5.4
    endloop
  endfacet
  facet normal 0.890368 -0.455241 0
    outer loop
      vertex 105.425 -4.60076 5.4
      vertex 105.272 -4.9 2.4
      vertex 105.425 -4.60076 3.8147e-07
    endloop
  endfacet
  facet normal 0.891004 -0.453995 0
    outer loop
      vertex 105.183 -5.07467 3.8147e-07
      vertex 105.272 -4.9 2.4
      vertex 105.183 -5.07467 2.4
    endloop
  endfacet
  facet normal 0.890603 -0.454782 7.2156e-05
    outer loop
      vertex 105.272 -4.9 2.4
      vertex 105.183 -5.07467 3.8147e-07
      vertex 105.425 -4.60076 3.8147e-07
    endloop
  endfacet
  facet normal -0.707201 0.707013 0
    outer loop
      vertex 108.175 -6.59923 3.8147e-07
      vertex 107.799 -6.97533 5.4
      vertex 108.175 -6.59923 5.4
    endloop
  endfacet
  facet normal -0.707201 0.707013 0
    outer loop
      vertex 107.799 -6.97533 5.4
      vertex 108.175 -6.59923 3.8147e-07
      vertex 107.799 -6.97533 3.8147e-07
    endloop
  endfacet
  facet normal -0.454279 0.89086 0
    outer loop
      vertex 107.799 -6.97533 5.4
      vertex 107.5 -7.1278 2.4
      vertex 107.5 -7.1278 5.4
    endloop
  endfacet
  facet normal -0.454279 0.89086 0
    outer loop
      vertex 107.799 -6.97533 3.8147e-07
      vertex 107.5 -7.1278 2.4
      vertex 107.799 -6.97533 5.4
    endloop
  endfacet
  facet normal -0.453923 0.891041 5.58075e-05
    outer loop
      vertex 107.325 -7.2168 3.8147e-07
      vertex 107.5 -7.1278 2.4
      vertex 107.799 -6.97533 3.8147e-07
    endloop
  endfacet
  facet normal -0.453315 0.89135 0
    outer loop
      vertex 107.5 -7.1278 2.4
      vertex 107.325 -7.2168 3.8147e-07
      vertex 107.325 -7.2168 2.4
    endloop
  endfacet
  facet normal -0.156523 -0.987674 0
    outer loop
      vertex 106.8 -3.9 3.8147e-07
      vertex 107.325 -3.9832 5.4
      vertex 106.8 -3.9 5.4
    endloop
  endfacet
  facet normal -0.156523 -0.987674 -0
    outer loop
      vertex 107.325 -3.9832 5.4
      vertex 106.8 -3.9 3.8147e-07
      vertex 107.325 -3.9832 3.8147e-07
    endloop
  endfacet
  facet normal 0.156523 -0.987674 0
    outer loop
      vertex 106.275 -3.9832 3.8147e-07
      vertex 106.8 -3.9 5.4
      vertex 106.275 -3.9832 5.4
    endloop
  endfacet
  facet normal 0.156523 -0.987674 0
    outer loop
      vertex 106.8 -3.9 5.4
      vertex 106.275 -3.9832 3.8147e-07
      vertex 106.8 -3.9 3.8147e-07
    endloop
  endfacet
  facet normal -0.890603 -0.454782 0
    outer loop
      vertex 108.417 -5.07467 3.8147e-07
      vertex 108.175 -4.60076 5.4
      vertex 108.175 -4.60076 3.8147e-07
    endloop
  endfacet
  facet normal -0.890603 -0.454782 0
    outer loop
      vertex 108.175 -4.60076 5.4
      vertex 108.417 -5.07467 3.8147e-07
      vertex 108.417 -5.07467 5.4
    endloop
  endfacet
  facet normal -0.453923 -0.891041 0
    outer loop
      vertex 107.325 -3.9832 3.8147e-07
      vertex 107.799 -4.22467 5.4
      vertex 107.325 -3.9832 5.4
    endloop
  endfacet
  facet normal -0.453923 -0.891041 -0
    outer loop
      vertex 107.799 -4.22467 5.4
      vertex 107.325 -3.9832 3.8147e-07
      vertex 107.799 -4.22467 3.8147e-07
    endloop
  endfacet
  facet normal -0.987746 0.156069 0
    outer loop
      vertex 108.417 -87.9253 3.8147e-07
      vertex 108.5 -87.4 5.4
      vertex 108.5 -87.4 3.8147e-07
    endloop
  endfacet
  facet normal -0.987746 0.156069 0
    outer loop
      vertex 108.5 -87.4 5.4
      vertex 108.417 -87.9253 3.8147e-07
      vertex 108.417 -87.9253 5.4
    endloop
  endfacet
  facet normal 0.987746 0.156069 0
    outer loop
      vertex 105.183 -87.9253 2.4
      vertex 105.1 -87.4 3.8147e-07
      vertex 105.1 -87.4 2.4
    endloop
  endfacet
  facet normal 0.987746 0.156069 0
    outer loop
      vertex 105.1 -87.4 3.8147e-07
      vertex 105.183 -87.9253 2.4
      vertex 105.183 -87.9253 3.8147e-07
    endloop
  endfacet
  facet normal -0.156523 0.987674 0
    outer loop
      vertex 107.325 -89.0168 3.8147e-07
      vertex 106.8 -89.1 5.4
      vertex 107.325 -89.0168 5.4
    endloop
  endfacet
  facet normal -0.156523 0.987674 0
    outer loop
      vertex 106.8 -89.1 5.4
      vertex 107.325 -89.0168 3.8147e-07
      vertex 106.8 -89.1 3.8147e-07
    endloop
  endfacet
  facet normal -0.707201 0.707013 0
    outer loop
      vertex 107.799 -88.7753 3.8147e-07
      vertex 108.175 -88.3992 5.4
      vertex 108.175 -88.3992 3.8147e-07
    endloop
  endfacet
  facet normal -0.707201 0.707013 0
    outer loop
      vertex 108.175 -88.3992 5.4
      vertex 107.799 -88.7753 3.8147e-07
      vertex 107.799 -88.7753 5.4
    endloop
  endfacet
  facet normal -0.890599 0.45479 0
    outer loop
      vertex 108.175 -88.3992 3.8147e-07
      vertex 108.417 -87.9253 5.4
      vertex 108.417 -87.9253 3.8147e-07
    endloop
  endfacet
  facet normal -0.890599 0.45479 0
    outer loop
      vertex 108.417 -87.9253 5.4
      vertex 108.175 -88.3992 3.8147e-07
      vertex 108.175 -88.3992 5.4
    endloop
  endfacet
  facet normal -0.453968 0.891018 0
    outer loop
      vertex 107.799 -88.7753 3.8147e-07
      vertex 107.325 -89.0168 5.4
      vertex 107.799 -88.7753 5.4
    endloop
  endfacet
  facet normal -0.453968 0.891018 0
    outer loop
      vertex 107.325 -89.0168 5.4
      vertex 107.799 -88.7753 3.8147e-07
      vertex 107.325 -89.0168 3.8147e-07
    endloop
  endfacet
  facet normal 0.453968 0.891018 -0
    outer loop
      vertex 106.275 -89.0168 3.8147e-07
      vertex 105.801 -88.7753 5.4
      vertex 106.275 -89.0168 5.4
    endloop
  endfacet
  facet normal 0.453968 0.891018 0
    outer loop
      vertex 105.801 -88.7753 5.4
      vertex 106.275 -89.0168 3.8147e-07
      vertex 105.801 -88.7753 3.8147e-07
    endloop
  endfacet
  facet normal 0.707201 0.707013 0
    outer loop
      vertex 105.801 -88.7753 5.4
      vertex 105.425 -88.3992 3.8147e-07
      vertex 105.425 -88.3992 5.4
    endloop
  endfacet
  facet normal 0.707201 0.707013 0
    outer loop
      vertex 105.425 -88.3992 3.8147e-07
      vertex 105.801 -88.7753 5.4
      vertex 105.801 -88.7753 3.8147e-07
    endloop
  endfacet
  facet normal -0.453315 -0.89135 -0
    outer loop
      vertex 107.325 -85.7832 2.4
      vertex 107.325 -85.7832 3.8147e-07
      vertex 107.5 -85.8722 2.4
    endloop
  endfacet
  facet normal -0.45435 -0.890823 0
    outer loop
      vertex 107.5 -85.8722 2.4
      vertex 107.799 -86.0247 5.4
      vertex 107.5 -85.8722 5.4
    endloop
  endfacet
  facet normal -0.453968 -0.891018 5.99181e-05
    outer loop
      vertex 107.799 -86.0247 3.8147e-07
      vertex 107.5 -85.8722 2.4
      vertex 107.325 -85.7832 3.8147e-07
    endloop
  endfacet
  facet normal -0.45435 -0.890823 0
    outer loop
      vertex 107.5 -85.8722 2.4
      vertex 107.799 -86.0247 3.8147e-07
      vertex 107.799 -86.0247 5.4
    endloop
  endfacet
  facet normal 0.891036 0.453933 0
    outer loop
      vertex 105.272 -88.1 2.4
      vertex 105.183 -87.9253 3.8147e-07
      vertex 105.183 -87.9253 2.4
    endloop
  endfacet
  facet normal 0.890344 0.455289 -0
    outer loop
      vertex 105.425 -88.3992 3.8147e-07
      vertex 105.272 -88.1 2.4
      vertex 105.425 -88.3992 5.4
    endloop
  endfacet
  facet normal 0.890599 0.45479 7.8539e-05
    outer loop
      vertex 105.272 -88.1 2.4
      vertex 105.425 -88.3992 3.8147e-07
      vertex 105.183 -87.9253 3.8147e-07
    endloop
  endfacet
  facet normal 0.890344 0.455289 0
    outer loop
      vertex 105.272 -88.1 5.4
      vertex 105.425 -88.3992 5.4
      vertex 105.272 -88.1 2.4
    endloop
  endfacet
  facet normal 0.156523 0.987674 -0
    outer loop
      vertex 106.8 -89.1 3.8147e-07
      vertex 106.275 -89.0168 5.4
      vertex 106.8 -89.1 5.4
    endloop
  endfacet
  facet normal 0.156523 0.987674 0
    outer loop
      vertex 106.275 -89.0168 5.4
      vertex 106.8 -89.1 3.8147e-07
      vertex 106.275 -89.0168 3.8147e-07
    endloop
  endfacet
  facet normal -0.890599 -0.45479 0
    outer loop
      vertex 108.417 -86.8747 3.8147e-07
      vertex 108.175 -86.4008 5.4
      vertex 108.175 -86.4008 3.8147e-07
    endloop
  endfacet
  facet normal -0.890599 -0.45479 0
    outer loop
      vertex 108.175 -86.4008 5.4
      vertex 108.417 -86.8747 3.8147e-07
      vertex 108.417 -86.8747 5.4
    endloop
  endfacet
  facet normal -0.987746 -0.156069 0
    outer loop
      vertex 108.5 -87.4 3.8147e-07
      vertex 108.417 -86.8747 5.4
      vertex 108.417 -86.8747 3.8147e-07
    endloop
  endfacet
  facet normal -0.987746 -0.156069 0
    outer loop
      vertex 108.417 -86.8747 5.4
      vertex 108.5 -87.4 3.8147e-07
      vertex 108.5 -87.4 5.4
    endloop
  endfacet
  facet normal 0.987746 -0.156069 0
    outer loop
      vertex 105.1 -87.4 2.4
      vertex 105.183 -86.8747 3.8147e-07
      vertex 105.183 -86.8747 2.4
    endloop
  endfacet
  facet normal 0.987746 -0.156069 0
    outer loop
      vertex 105.183 -86.8747 3.8147e-07
      vertex 105.1 -87.4 2.4
      vertex 105.1 -87.4 3.8147e-07
    endloop
  endfacet
  facet normal -0.707201 -0.707013 0
    outer loop
      vertex 107.799 -86.0247 3.8147e-07
      vertex 108.175 -86.4008 5.4
      vertex 107.799 -86.0247 5.4
    endloop
  endfacet
  facet normal -0.707201 -0.707013 -0
    outer loop
      vertex 108.175 -86.4008 5.4
      vertex 107.799 -86.0247 3.8147e-07
      vertex 108.175 -86.4008 3.8147e-07
    endloop
  endfacet
  facet normal 0.707201 -0.707013 0
    outer loop
      vertex 105.425 -86.4008 3.8147e-07
      vertex 105.801 -86.0247 2.4
      vertex 105.425 -86.4008 2.4
    endloop
  endfacet
  facet normal 0.707201 -0.707013 0
    outer loop
      vertex 105.801 -86.0247 2.4
      vertex 105.425 -86.4008 3.8147e-07
      vertex 105.801 -86.0247 3.8147e-07
    endloop
  endfacet
  facet normal 0.890599 -0.45479 0
    outer loop
      vertex 105.183 -86.8747 2.4
      vertex 105.425 -86.4008 3.8147e-07
      vertex 105.425 -86.4008 2.4
    endloop
  endfacet
  facet normal 0.890599 -0.45479 0
    outer loop
      vertex 105.425 -86.4008 3.8147e-07
      vertex 105.183 -86.8747 2.4
      vertex 105.183 -86.8747 3.8147e-07
    endloop
  endfacet
  facet normal -0.156523 -0.987674 0
    outer loop
      vertex 106.8 -85.7 3.8147e-07
      vertex 107.325 -85.7832 2.4
      vertex 106.8 -85.7 2.4
    endloop
  endfacet
  facet normal -0.156523 -0.987674 -0
    outer loop
      vertex 107.325 -85.7832 2.4
      vertex 106.8 -85.7 3.8147e-07
      vertex 107.325 -85.7832 3.8147e-07
    endloop
  endfacet
  facet normal 0.156523 -0.987674 0
    outer loop
      vertex 106.275 -85.7832 3.8147e-07
      vertex 106.8 -85.7 2.4
      vertex 106.275 -85.7832 2.4
    endloop
  endfacet
  facet normal 0.156523 -0.987674 0
    outer loop
      vertex 106.8 -85.7 2.4
      vertex 106.275 -85.7832 3.8147e-07
      vertex 106.8 -85.7 3.8147e-07
    endloop
  endfacet
  facet normal 0.453968 -0.891018 0
    outer loop
      vertex 105.801 -86.0247 3.8147e-07
      vertex 106.275 -85.7832 2.4
      vertex 105.801 -86.0247 2.4
    endloop
  endfacet
  facet normal 0.453968 -0.891018 0
    outer loop
      vertex 106.275 -85.7832 2.4
      vertex 105.801 -86.0247 3.8147e-07
      vertex 106.275 -85.7832 3.8147e-07
    endloop
  endfacet
  facet normal 1 -0 0
    outer loop
      vertex 4.9 -85.8722 5.4
      vertex 4.9 -7.1278 2.4
      vertex 4.9 -7.1278 5.4
    endloop
  endfacet
  facet normal 1 0 0
    outer loop
      vertex 4.9 -7.1278 2.4
      vertex 4.9 -85.8722 5.4
      vertex 4.9 -85.8722 2.4
    endloop
  endfacet
  facet normal -0 0 1
    outer loop
      vertex 6.97533 -6.59923 2.4
      vertex 78.8 -34 2.4
      vertex 7.2168 -6.12533 2.4
    endloop
  endfacet
  facet normal 0 0 1
    outer loop
      vertex 78.8 -34 2.4
      vertex 7.2168 -86.8747 2.4
      vertex 7.3 -87.4 2.4
    endloop
  endfacet
  facet normal -0 0 1
    outer loop
      vertex 6.59923 -6.97533 2.4
      vertex 78.8 -34 2.4
      vertex 6.97533 -6.59923 2.4
    endloop
  endfacet
  facet normal 0 0 1
    outer loop
      vertex 78.8 -34 2.4
      vertex 6.97533 -86.4008 2.4
      vertex 7.2168 -86.8747 2.4
    endloop
  endfacet
  facet normal 0 0 1
    outer loop
      vertex 6.59923 -86.0247 2.4
      vertex 78.8 -34 2.4
      vertex 6.59923 -6.97533 2.4
    endloop
  endfacet
  facet normal 0 0 1
    outer loop
      vertex 78.8 -34 2.4
      vertex 6.59923 -86.0247 2.4
      vertex 6.97533 -86.4008 2.4
    endloop
  endfacet
  facet normal -0 0 1
    outer loop
      vertex 6.12533 -7.2168 2.4
      vertex 6.59923 -86.0247 2.4
      vertex 6.59923 -6.97533 2.4
    endloop
  endfacet
  facet normal 0 0 1
    outer loop
      vertex 6.12533 -7.2168 2.4
      vertex 6.12533 -85.7832 2.4
      vertex 6.59923 -86.0247 2.4
    endloop
  endfacet
  facet normal -0 0 1
    outer loop
      vertex 5.6 -7.3 2.4
      vertex 6.12533 -85.7832 2.4
      vertex 6.12533 -7.2168 2.4
    endloop
  endfacet
  facet normal 0 0 1
    outer loop
      vertex 5.6 -7.3 2.4
      vertex 5.6 -85.7 2.4
      vertex 6.12533 -85.7832 2.4
    endloop
  endfacet
  facet normal 0 0 1
    outer loop
      vertex 5.07467 -7.2168 2.4
      vertex 5.6 -85.7 2.4
      vertex 5.6 -7.3 2.4
    endloop
  endfacet
  facet normal 0 0 1
    outer loop
      vertex 5.07467 -7.2168 2.4
      vertex 5.07467 -85.7832 2.4
      vertex 5.6 -85.7 2.4
    endloop
  endfacet
  facet normal 0 0 1
    outer loop
      vertex 4.9 -7.1278 2.4
      vertex 5.07467 -85.7832 2.4
      vertex 5.07467 -7.2168 2.4
    endloop
  endfacet
  facet normal 0 0 1
    outer loop
      vertex 5.07467 -85.7832 2.4
      vertex 4.9 -7.1278 2.4
      vertex 4.9 -85.8722 2.4
    endloop
  endfacet
  facet normal -0 0 1
    outer loop
      vertex 78.8 -60 2.4
      vertex 105.425 -86.4008 2.4
      vertex 104.8 -60 2.4
    endloop
  endfacet
  facet normal 0 0 1
    outer loop
      vertex 105.183 -6.12533 2.4
      vertex 78.8 -34 2.4
      vertex 104.8 -34 2.4
    endloop
  endfacet
  facet normal 0 0 1
    outer loop
      vertex 105.183 -5.07467 2.4
      vertex 78.8 -34 2.4
      vertex 105.1 -5.6 2.4
    endloop
  endfacet
  facet normal 0 0 1
    outer loop
      vertex 7.2168 -5.07467 2.4
      vertex 105.183 -5.07467 2.4
      vertex 105.272 -4.9 2.4
    endloop
  endfacet
  facet normal -0 0 1
    outer loop
      vertex 7.2168 -6.12533 2.4
      vertex 78.8 -34 2.4
      vertex 7.3 -5.6 2.4
    endloop
  endfacet
  facet normal 0 0 1
    outer loop
      vertex 105.183 -5.07467 2.4
      vertex 7.2168 -5.07467 2.4
      vertex 78.8 -34 2.4
    endloop
  endfacet
  facet normal 0 0 1
    outer loop
      vertex 78.8 -34 2.4
      vertex 7.2168 -5.07467 2.4
      vertex 7.3 -5.6 2.4
    endloop
  endfacet
  facet normal 0 -0 1
    outer loop
      vertex 7.2168 -5.07467 2.4
      vertex 105.272 -4.9 2.4
      vertex 7.1278 -4.9 2.4
    endloop
  endfacet
  facet normal 0 0 1
    outer loop
      vertex 104.8 -34 2.4
      vertex 107.5 -7.1278 2.4
      vertex 107.325 -7.2168 2.4
    endloop
  endfacet
  facet normal 0 0 1
    outer loop
      vertex 107.5 -7.1278 2.4
      vertex 104.8 -34 2.4
      vertex 107.5 -85.8722 2.4
    endloop
  endfacet
  facet normal 0 0 1
    outer loop
      vertex 104.8 -34 2.4
      vertex 107.325 -7.2168 2.4
      vertex 106.8 -7.3 2.4
    endloop
  endfacet
  facet normal -0 0 1
    outer loop
      vertex 104.8 -60 2.4
      vertex 107.5 -85.8722 2.4
      vertex 104.8 -34 2.4
    endloop
  endfacet
  facet normal 0 0 1
    outer loop
      vertex 104.8 -34 2.4
      vertex 106.8 -7.3 2.4
      vertex 106.275 -7.2168 2.4
    endloop
  endfacet
  facet normal 0 0 1
    outer loop
      vertex 107.5 -85.8722 2.4
      vertex 104.8 -60 2.4
      vertex 107.325 -85.7832 2.4
    endloop
  endfacet
  facet normal 0 0 1
    outer loop
      vertex 104.8 -34 2.4
      vertex 106.275 -7.2168 2.4
      vertex 105.801 -6.97533 2.4
    endloop
  endfacet
  facet normal 0 0 1
    outer loop
      vertex 107.325 -85.7832 2.4
      vertex 104.8 -60 2.4
      vertex 106.8 -85.7 2.4
    endloop
  endfacet
  facet normal 0 0 1
    outer loop
      vertex 104.8 -34 2.4
      vertex 105.801 -6.97533 2.4
      vertex 105.425 -6.59923 2.4
    endloop
  endfacet
  facet normal 0 0 1
    outer loop
      vertex 106.8 -85.7 2.4
      vertex 104.8 -60 2.4
      vertex 106.275 -85.7832 2.4
    endloop
  endfacet
  facet normal 0 0 1
    outer loop
      vertex 104.8 -34 2.4
      vertex 105.425 -6.59923 2.4
      vertex 105.183 -6.12533 2.4
    endloop
  endfacet
  facet normal 0 0 1
    outer loop
      vertex 106.275 -85.7832 2.4
      vertex 104.8 -60 2.4
      vertex 105.801 -86.0247 2.4
    endloop
  endfacet
  facet normal 0 0 1
    outer loop
      vertex 78.8 -34 2.4
      vertex 105.183 -6.12533 2.4
      vertex 105.1 -5.6 2.4
    endloop
  endfacet
  facet normal 0 0 1
    outer loop
      vertex 105.801 -86.0247 2.4
      vertex 104.8 -60 2.4
      vertex 105.425 -86.4008 2.4
    endloop
  endfacet
  facet normal 0 0 1
    outer loop
      vertex 105.425 -86.4008 2.4
      vertex 78.8 -60 2.4
      vertex 105.183 -86.8747 2.4
    endloop
  endfacet
  facet normal 0 0 1
    outer loop
      vertex 105.183 -86.8747 2.4
      vertex 78.8 -60 2.4
      vertex 105.1 -87.4 2.4
    endloop
  endfacet
  facet normal 0 0 1
    outer loop
      vertex 78.8 -60 2.4
      vertex 105.183 -87.9253 2.4
      vertex 105.1 -87.4 2.4
    endloop
  endfacet
  facet normal 0 0 1
    outer loop
      vertex 7.2168 -87.9253 2.4
      vertex 105.183 -87.9253 2.4
      vertex 78.8 -60 2.4
    endloop
  endfacet
  facet normal 0 0 1
    outer loop
      vertex 78.8 -34 2.4
      vertex 7.3 -87.4 2.4
      vertex 78.8 -60 2.4
    endloop
  endfacet
  facet normal 0 0 1
    outer loop
      vertex 7.2168 -87.9253 2.4
      vertex 78.8 -60 2.4
      vertex 7.3 -87.4 2.4
    endloop
  endfacet
  facet normal 0 0 1
    outer loop
      vertex 105.183 -87.9253 2.4
      vertex 7.2168 -87.9253 2.4
      vertex 105.272 -88.1 2.4
    endloop
  endfacet
  facet normal 0 0 1
    outer loop
      vertex 105.272 -88.1 2.4
      vertex 7.2168 -87.9253 2.4
      vertex 7.1278 -88.1 2.4
    endloop
  endfacet
  facet normal -1 0 0
    outer loop
      vertex 107.5 -85.8722 2.4
      vertex 107.5 -7.1278 5.4
      vertex 107.5 -7.1278 2.4
    endloop
  endfacet
  facet normal -1 -0 0
    outer loop
      vertex 107.5 -7.1278 5.4
      vertex 107.5 -85.8722 2.4
      vertex 107.5 -85.8722 5.4
    endloop
  endfacet
  facet normal 0 0 -1
    outer loop
      vertex 16.2 -62.2 6.4
      vertex 96.2 -59.2 6.4
      vertex 96.2 -62.2 6.4
    endloop
  endfacet
  facet normal -0 0 -1
    outer loop
      vertex 96.2 -59.2 6.4
      vertex 16.2 -62.2 6.4
      vertex 16.2 -59.2 6.4
    endloop
  endfacet
  facet normal 0 0 -1
    outer loop
      vertex 16.2 -7.2 6.4
      vertex 96.2 -4.9 6.4
      vertex 96.2 -7.2 6.4
    endloop
  endfacet
  facet normal -0 0 -1
    outer loop
      vertex 96.2 -4.9 6.4
      vertex 16.2 -7.2 6.4
      vertex 16.2 -4.9 6.4
    endloop
  endfacet
  facet normal 0 -1 0
    outer loop
      vertex 7.1278 -4.9 2.4
      vertex 16.2 -4.9 5.4
      vertex 7.1278 -4.9 5.4
    endloop
  endfacet
  facet normal 0 -1 -0
    outer loop
      vertex 16.2 -4.9 5.4
      vertex 7.1278 -4.9 2.4
      vertex 96.2 -4.9 5.4
    endloop
  endfacet
  facet normal 0 -1 0
    outer loop
      vertex 105.272 -4.9 2.4
      vertex 96.2 -4.9 5.4
      vertex 7.1278 -4.9 2.4
    endloop
  endfacet
  facet normal 0 -1 0
    outer loop
      vertex 96.2 -4.9 5.4
      vertex 105.272 -4.9 2.4
      vertex 105.272 -4.9 5.4
    endloop
  endfacet
  facet normal 0 -1 0
    outer loop
      vertex 16.2 -4.9 5.4
      vertex 96.2 -4.9 6.4
      vertex 16.2 -4.9 6.4
    endloop
  endfacet
  facet normal 0 -1 -0
    outer loop
      vertex 96.2 -4.9 6.4
      vertex 16.2 -4.9 5.4
      vertex 96.2 -4.9 5.4
    endloop
  endfacet
  facet normal 0 1 -0
    outer loop
      vertex 105.272 -88.1 2.4
      vertex 7.1278 -88.1 5.4
      vertex 105.272 -88.1 5.4
    endloop
  endfacet
  facet normal 0 1 0
    outer loop
      vertex 7.1278 -88.1 5.4
      vertex 105.272 -88.1 2.4
      vertex 7.1278 -88.1 2.4
    endloop
  endfacet
  facet normal 1 -0 0
    outer loop
      vertex 78.8 -60 2.4
      vertex 78.8 -34 1.2
      vertex 78.8 -34 2.4
    endloop
  endfacet
  facet normal 1 0 0
    outer loop
      vertex 78.8 -34 1.2
      vertex 78.8 -60 2.4
      vertex 78.8 -60 1.2
    endloop
  endfacet
  facet normal -0 0 1
    outer loop
      vertex 78.8 -34 1.2
      vertex 104.8 -60 1.2
      vertex 104.8 -34 1.2
    endloop
  endfacet
  facet normal 0 0 1
    outer loop
      vertex 104.8 -60 1.2
      vertex 78.8 -34 1.2
      vertex 78.8 -60 1.2
    endloop
  endfacet
  facet normal -1 0 0
    outer loop
      vertex 104.8 -60 1.2
      vertex 104.8 -34 2.4
      vertex 104.8 -34 1.2
    endloop
  endfacet
  facet normal -1 -0 0
    outer loop
      vertex 104.8 -34 2.4
      vertex 104.8 -60 1.2
      vertex 104.8 -60 2.4
    endloop
  endfacet
  facet normal 0 1 -0
    outer loop
      vertex 104.8 -60 1.2
      vertex 78.8 -60 2.4
      vertex 104.8 -60 2.4
    endloop
  endfacet
  facet normal 0 1 0
    outer loop
      vertex 78.8 -60 2.4
      vertex 104.8 -60 1.2
      vertex 78.8 -60 1.2
    endloop
  endfacet
  facet normal 0 -1 0
    outer loop
      vertex 78.8 -34 1.2
      vertex 104.8 -34 2.4
      vertex 78.8 -34 2.4
    endloop
  endfacet
  facet normal 0 -1 -0
    outer loop
      vertex 104.8 -34 2.4
      vertex 78.8 -34 1.2
      vertex 104.8 -34 1.2
    endloop
  endfacet
endsolid OpenSCAD_Model
